<svg version="1.1" viewBox="0.0 0.0 1083.6167979002626 661.7349081364829" fill="none" stroke="none" stroke-linecap="square" stroke-miterlimit="10" xmlns:xlink="http://www.w3.org/1999/xlink" xmlns="http://www.w3.org/2000/svg"><clipPath id="p.0"><path d="m0 0l1083.6168 0l0 661.7349l-1083.6168 0l0 -661.7349z" clip-rule="nonzero"/></clipPath><g clip-path="url(#p.0)"><path fill="#000000" fill-opacity="0.0" d="m0 0l1083.6168 0l0 661.7349l-1083.6168 0z" fill-rule="evenodd"/><path fill="#efefef" d="m16.254593 360.0l284.8819 0l0 100.031494l-284.8819 0z" fill-rule="evenodd"/><path fill="#003b4f" d="m26.801468 389.48l0 -1.09375l2.953125 0l0 -7.515625l-2.296875 0l0 -0.84375q0.609375 -0.078125 1.078125 -0.1875q0.46875 -0.125 0.84375 -0.25q0.390625 -0.140625 0.703125 -0.3125l0.984375 0l0 9.109375l2.671875 0l0 1.09375l-6.9375 0z" fill-rule="nonzero"/><path fill="#000000" d="m68.43593 389.73q-1.0625 0 -1.84375 -0.421875q-0.78125 -0.421875 -1.21875 -1.140625q-0.421875 -0.734375 -0.421875 -1.625q0 -1.78125 1.609375 -2.71875q1.609375 -0.9375 5.375 -1.140625q-0.0625 -0.5 -0.328125 -0.84375q-0.25 -0.34375 -0.734375 -0.515625q-0.484375 -0.1875 -1.203125 -0.1875q-0.515625 0 -1.03125 0.125q-0.5 0.109375 -1.046875 0.34375q-0.546875 0.21875 -1.140625 0.515625l-1.109375 -2.046875q0.71875 -0.421875 1.515625 -0.734375q0.8125 -0.328125 1.671875 -0.5q0.859375 -0.1875 1.765625 -0.1875q1.484375 0 2.546875 0.515625q1.078125 0.515625 1.640625 1.578125q0.578125 1.0625 0.578125 2.671875l0 6.0625l-2.5625 0l-0.234375 -1.1875l-0.078125 0q-0.796875 0.59375 -1.75 1.015625q-0.953125 0.421875 -2.0 0.421875zm1.0 -2.421875q0.703125 0 1.3125 -0.28125q0.625 -0.296875 1.1875 -0.71875l0 -1.75q-1.5625 0.078125 -2.4375 0.3125q-0.859375 0.234375 -1.203125 0.609375q-0.328125 0.359375 -0.328125 0.828125q0 0.3125 0.171875 0.546875q0.1875 0.234375 0.515625 0.34375q0.328125 0.109375 0.78125 0.109375zm15.437546 2.421875q-1.984375 0 -3.015625 -1.1875q-1.015625 -1.203125 -1.015625 -3.203125l0 -8.34375l-3.296875 0l0 -2.453125l6.4375 0l0 10.921875q0 0.984375 0.53125 1.359375q0.53125 0.375 1.171875 0.375q0.390625 0 0.78125 -0.078125q0.390625 -0.09375 0.890625 -0.265625l0.671875 2.3125q-0.8125 0.25 -1.484375 0.40625q-0.671875 0.15625 -1.671875 0.15625zm12.656296 0q-1.6875 0 -2.6875 -0.578125q-0.984375 -0.59375 -1.4375 -1.625q-0.4375 -1.046875 -0.4375 -2.4375l0 -3.734375l-2.65625 0l0 -2.328125l2.796875 -0.125l0.40625 -3.25l2.578125 0l0 3.25l4.484375 0l0 2.453125l-4.484375 0l0 3.703125q0 0.796875 0.234375 1.296875q0.234375 0.484375 0.71875 0.703125q0.5 0.21875 1.265625 0.21875q0.625 0 1.125 -0.09375q0.515625 -0.109375 0.984375 -0.28125l0.5625 2.265625q-0.703125 0.203125 -1.546875 0.375q-0.84375 0.1875 -1.90625 0.1875zm10.921921 0q-1.09375 0 -1.796875 -0.71875q-0.6875 -0.71875 -0.6875 -1.765625q0 -1.046875 0.6875 -1.78125q0.703125 -0.734375 1.796875 -0.734375q1.09375 0 1.78125 0.734375q0.6875 0.734375 0.6875 1.78125q0 1.046875 -0.6875 1.765625q-0.6875 0.71875 -1.78125 0.71875zm13.984421 0q-1.296875 0 -2.46875 -0.4375q-1.15625 -0.453125 -2.0625 -1.359375q-0.890625 -0.90625 -1.40625 -2.234375q-0.5 -1.34375 -0.5 -3.09375q0 -2.296875 0.875 -3.921875q0.890625 -1.640625 2.390625 -2.5q1.5 -0.859375 3.359375 -0.859375q1.328125 0 2.390625 0.546875q1.0625 0.53125 1.765625 1.21875l-1.71875 1.9375q-0.5 -0.46875 -1.09375 -0.734375q-0.578125 -0.265625 -1.34375 -0.265625q-0.984375 0 -1.75 0.546875q-0.765625 0.546875 -1.21875 1.546875q-0.4375 1.0 -0.4375 2.390625q0 1.421875 0.4375 2.4375q0.453125 1.015625 1.25 1.546875q0.8125 0.53125 1.84375 0.53125q0.78125 0 1.390625 -0.34375q0.625 -0.34375 1.125 -0.890625l1.734375 1.890625q-0.859375 1.0 -2.015625 1.53125q-1.140625 0.515625 -2.546875 0.515625zm6.734421 -0.25l0 -14.953125l3.140625 0l0 3.671875l-0.171875 2.03125l0.0625 0q0.59375 -0.625 1.453125 -1.09375q0.875 -0.484375 2.0625 -0.484375q1.796875 0 2.609375 1.15625q0.828125 1.140625 0.828125 3.140625l0 6.53125l-3.140625 0l0 -6.125q0 -1.0625 -0.359375 -1.546875q-0.34375 -0.5 -1.1875 -0.5q-0.640625 0 -1.125 0.296875q-0.484375 0.28125 -1.03125 0.8125l0 7.0625l-3.140625 0zm16.04692 0.25q-1.0625 0 -1.84375 -0.421875q-0.78125 -0.421875 -1.21875 -1.140625q-0.421875 -0.734375 -0.421875 -1.625q0 -1.78125 1.609375 -2.71875q1.609375 -0.9375 5.375 -1.140625q-0.0625 -0.5 -0.328125 -0.84375q-0.25 -0.34375 -0.734375 -0.515625q-0.484375 -0.1875 -1.203125 -0.1875q-0.515625 0 -1.03125 0.125q-0.5 0.109375 -1.046875 0.34375q-0.546875 0.21875 -1.140625 0.515625l-1.109375 -2.046875q0.71875 -0.421875 1.515625 -0.734375q0.8125 -0.328125 1.671875 -0.5q0.859375 -0.1875 1.765625 -0.1875q1.484375 0 2.546875 0.515625q1.078125 0.515625 1.640625 1.578125q0.578125 1.0625 0.578125 2.671875l0 6.0625l-2.5625 0l-0.234375 -1.1875l-0.078125 0q-0.796875 0.59375 -1.75 1.015625q-0.953125 0.421875 -2.0 0.421875zm1.0 -2.421875q0.703125 0 1.3125 -0.28125q0.625 -0.296875 1.1875 -0.71875l0 -1.75q-1.5625 0.078125 -2.4375 0.3125q-0.859375 0.234375 -1.203125 0.609375q-0.328125 0.359375 -0.328125 0.828125q0 0.3125 0.171875 0.546875q0.1875 0.234375 0.515625 0.34375q0.328125 0.109375 0.78125 0.109375zm9.484421 2.171875l0 -10.578125l2.5625 0l0.265625 2.296875l0.0625 0q0.78125 -1.296875 1.890625 -1.921875q1.125 -0.625 2.390625 -0.625q0.703125 0 1.140625 0.109375q0.4375 0.09375 0.90625 0.3125l-0.640625 2.625q-0.484375 -0.15625 -0.890625 -0.21875q-0.390625 -0.078125 -0.984375 -0.078125q-0.984375 0 -1.9375 0.578125q-0.9375 0.5625 -1.625 2.0l0 5.5l-3.140625 0zm18.60942 0.25q-1.6875 0 -2.6875 -0.578125q-0.984375 -0.59375 -1.4375 -1.625q-0.4375 -1.046875 -0.4375 -2.4375l0 -3.734375l-2.65625 0l0 -2.328125l2.796875 -0.125l0.40625 -3.25l2.578125 0l0 3.25l4.484375 0l0 2.453125l-4.484375 0l0 3.703125q0 0.796875 0.234375 1.296875q0.234375 0.484375 0.71875 0.703125q0.5 0.21875 1.265625 0.21875q0.625 0 1.125 -0.09375q0.515625 -0.109375 0.984375 -0.28125l0.5625 2.265625q-0.703125 0.203125 -1.546875 0.375q-0.84375 0.1875 -1.90625 0.1875zm12.875046 3.5625q-2.0625 -1.84375 -3.28125 -4.28125q-1.21875 -2.453125 -1.21875 -5.453125q0 -3.015625 1.21875 -5.46875q1.21875 -2.453125 3.28125 -4.28125l1.75 1.375q-1.921875 1.859375 -2.78125 3.84375q-0.84375 1.984375 -0.84375 4.53125q0 2.515625 0.84375 4.515625q0.859375 1.984375 2.78125 3.84375l-1.75 1.375z" fill-rule="nonzero"/><path fill="#003b4f" d="m26.426468 415.48l0 -0.78125q1.71875 -1.515625 2.90625 -2.671875q1.203125 -1.171875 1.828125 -2.09375q0.625 -0.9375 0.625 -1.78125q0 -0.875 -0.546875 -1.4375q-0.546875 -0.5625 -1.6875 -0.5625q-0.71875 0 -1.328125 0.359375q-0.609375 0.34375 -1.109375 0.875l-0.75 -0.75q0.6875 -0.703125 1.46875 -1.125q0.796875 -0.4375 1.890625 -0.4375q1.015625 0 1.75 0.390625q0.75 0.375 1.15625 1.046875q0.421875 0.671875 0.421875 1.578125q0 0.953125 -0.59375 1.9375q-0.59375 0.96875 -1.65625 2.0625q-1.0625 1.078125 -2.453125 2.34375q0.46875 -0.046875 0.953125 -0.0625q0.484375 -0.03125 0.9375 -0.03125l3.375 0l0 1.140625l-7.1875 0z" fill-rule="nonzero"/><path fill="#000000" d="m112.75778 414.82376l-8.234375 -5.34375l0 -2.171875l8.234375 -5.328125l0 2.828125l-5.640625 3.546875l0 0.09375l5.640625 3.53125l0 2.84375zm8.500046 0.90625q-1.390625 0 -2.640625 -0.640625q-1.234375 -0.65625 -2.0 -1.90625q-0.765625 -1.25 -0.765625 -3.0q0 -1.734375 0.765625 -2.984375q0.765625 -1.25 2.0 -1.890625q1.25 -0.65625 2.640625 -0.65625q1.375 0 2.609375 0.65625q1.25 0.640625 2.015625 1.890625q0.765625 1.25 0.765625 2.984375q0 1.75 -0.765625 3.0q-0.765625 1.25 -2.015625 1.90625q-1.234375 0.640625 -2.609375 0.640625zm0 -2.53125q0.71875 0 1.1875 -0.359375q0.484375 -0.359375 0.734375 -1.046875q0.25 -0.6875 0.25 -1.609375q0 -0.90625 -0.25 -1.59375q-0.25 -0.6875 -0.734375 -1.046875q-0.46875 -0.359375 -1.1875 -0.359375q-0.734375 0 -1.21875 0.359375q-0.46875 0.359375 -0.71875 1.046875q-0.25 0.6875 -0.25 1.59375q0 0.921875 0.25 1.609375q0.25 0.6875 0.71875 1.046875q0.484375 0.359375 1.21875 0.359375zm7.921921 6.203125l0 -14.5l2.5625 0l0.234375 1.0625l0.0625 0q0.671875 -0.578125 1.484375 -0.9375q0.828125 -0.375 1.671875 -0.375q1.328125 0 2.265625 0.65625q0.953125 0.65625 1.46875 1.875q0.515625 1.21875 0.515625 2.84375q0 1.8125 -0.65625 3.09375q-0.640625 1.265625 -1.6875 1.9375q-1.046875 0.671875 -2.25 0.671875q-0.703125 0 -1.375 -0.296875q-0.671875 -0.296875 -1.21875 -0.84375l-0.09375 0l0.15625 1.71875l0 3.09375l-3.140625 0zm4.953125 -6.21875q0.59375 0 1.0625 -0.3125q0.46875 -0.328125 0.75 -1.015625q0.28125 -0.703125 0.28125 -1.796875q0 -0.953125 -0.21875 -1.578125q-0.21875 -0.640625 -0.640625 -0.953125q-0.40625 -0.328125 -1.078125 -0.328125q-0.515625 0 -1.0 0.234375q-0.484375 0.21875 -0.96875 0.75l0 4.296875q0.453125 0.359375 0.921875 0.53125q0.484375 0.171875 0.890625 0.171875zm14.593796 2.546875q-1.6875 0 -2.6875 -0.578125q-0.984375 -0.59375 -1.4375 -1.625q-0.4375 -1.046875 -0.4375 -2.4375l0 -3.734375l-2.65625 0l0 -2.328125l2.796875 -0.125l0.40625 -3.25l2.578125 0l0 3.25l4.484375 0l0 2.453125l-4.484375 0l0 3.703125q0 0.796875 0.234375 1.296875q0.234375 0.484375 0.71875 0.703125q0.5 0.21875 1.265625 0.21875q0.625 0 1.125 -0.09375q0.515625 -0.109375 0.984375 -0.28125l0.5625 2.265625q-0.703125 0.203125 -1.546875 0.375q-0.84375 0.1875 -1.90625 0.1875zm10.437546 -0.25l0 -8.125l-4.265625 0l0 -2.453125l7.40625 0l0 10.578125l-3.140625 0zm1.4375 -12.25q-0.90625 0 -1.5 -0.515625q-0.59375 -0.515625 -0.59375 -1.375q0 -0.875 0.59375 -1.421875q0.59375 -0.546875 1.5 -0.546875q0.90625 0 1.484375 0.546875q0.59375 0.546875 0.59375 1.421875q0 0.859375 -0.59375 1.375q-0.578125 0.515625 -1.484375 0.515625zm11.843796 12.5q-1.390625 0 -2.640625 -0.640625q-1.234375 -0.65625 -2.0 -1.90625q-0.765625 -1.25 -0.765625 -3.0q0 -1.734375 0.765625 -2.984375q0.765625 -1.25 2.0 -1.890625q1.25 -0.65625 2.640625 -0.65625q1.375 0 2.609375 0.65625q1.25 0.640625 2.015625 1.890625q0.765625 1.25 0.765625 2.984375q0 1.75 -0.765625 3.0q-0.765625 1.25 -2.015625 1.90625q-1.234375 0.640625 -2.609375 0.640625zm0 -2.53125q0.71875 0 1.1875 -0.359375q0.484375 -0.359375 0.734375 -1.046875q0.25 -0.6875 0.25 -1.609375q0 -0.90625 -0.25 -1.59375q-0.25 -0.6875 -0.734375 -1.046875q-0.46875 -0.359375 -1.1875 -0.359375q-0.734375 0 -1.21875 0.359375q-0.46875 0.359375 -0.71875 1.046875q-0.25 0.6875 -0.25 1.59375q0 0.921875 0.25 1.609375q0.25 0.6875 0.71875 1.046875q0.484375 0.359375 1.21875 0.359375zm7.921921 2.28125l0 -10.578125l2.5625 0l0.234375 1.40625l0.09375 0q0.671875 -0.6875 1.5625 -1.171875q0.890625 -0.484375 2.078125 -0.484375q1.796875 0 2.625 1.15625q0.828125 1.140625 0.828125 3.140625l0 6.53125l-3.140625 0l0 -6.125q0 -1.0625 -0.359375 -1.546875q-0.34375 -0.5 -1.1875 -0.5q-0.640625 0 -1.125 0.296875q-0.484375 0.28125 -1.03125 0.8125l0 7.0625l-3.140625 0zm17.57817 0.25q-1.40625 0 -2.796875 -0.46875q-1.375 -0.484375 -2.390625 -1.140625l1.34375 -1.96875q0.96875 0.625 2.046875 0.953125q1.078125 0.3125 2.21875 0.3125q0.875 0 1.28125 -0.265625q0.40625 -0.28125 0.40625 -0.640625q0 -0.234375 -0.125 -0.390625q-0.109375 -0.15625 -0.40625 -0.296875q-0.28125 -0.140625 -0.78125 -0.265625q-0.5 -0.125 -1.28125 -0.296875q-2.15625 -0.46875 -3.09375 -1.28125q-0.9375 -0.8125 -0.9375 -2.03125q0 -1.484375 1.296875 -2.390625q1.296875 -0.90625 3.5625 -0.90625q1.421875 0 2.578125 0.453125q1.171875 0.453125 2.0 0.984375l-1.40625 1.890625q-0.78125 -0.5 -1.6875 -0.75q-0.890625 -0.265625 -1.765625 -0.265625q-0.484375 0 -0.8125 0.109375q-0.3125 0.09375 -0.484375 0.296875q-0.171875 0.203125 -0.171875 0.4375q0 0.421875 0.546875 0.625q0.5625 0.203125 1.90625 0.5q1.625 0.359375 2.53125 0.828125q0.921875 0.46875 1.265625 1.078125q0.359375 0.609375 0.359375 1.484375q0 0.953125 -0.59375 1.734375q-0.578125 0.765625 -1.75 1.21875q-1.15625 0.453125 -2.859375 0.453125zm8.578171 -0.90625l0 -2.84375l5.640625 -3.53125l0 -0.09375l-5.640625 -3.546875l0 -2.828125l8.234375 5.328125l0 2.171875l-8.234375 5.34375z" fill-rule="nonzero"/><path fill="#003b4f" d="m29.848343 441.6675q-0.875 0 -1.5625 -0.203125q-0.6875 -0.203125 -1.21875 -0.515625q-0.515625 -0.328125 -0.90625 -0.71875l0.671875 -0.8594055q0.515625 0.484375 1.234375 0.8594055q0.71875 0.359375 1.703125 0.359375q0.703125 0 1.25 -0.234375q0.546875 -0.234375 0.859375 -0.6562805q0.328125 -0.421875 0.328125 -0.984375q0 -0.609375 -0.375 -1.0625q-0.359375 -0.453125 -1.171875 -0.703125q-0.8125 -0.265625 -2.15625 -0.265625l0 -1.015625q1.21875 0 1.953125 -0.25q0.734375 -0.25 1.0625 -0.671875q0.328125 -0.4375 0.328125 -0.984375q0 -0.75 -0.578125 -1.171875q-0.5625 -0.4375 -1.5 -0.4375q-0.71875 0 -1.375 0.296875q-0.640625 0.28125 -1.140625 0.75l-0.703125 -0.84375q0.640625 -0.5625 1.453125 -0.921875q0.828125 -0.359375 1.8125 -0.359375q0.953125 0 1.71875 0.3125q0.765625 0.296875 1.203125 0.875q0.453125 0.578125 0.453125 1.40625q0 0.9375 -0.625 1.53125q-0.609375 0.578125 -1.546875 0.90625l0 0.0625q0.671875 0.140625 1.25 0.484375q0.578125 0.34375 0.921875 0.875q0.34375 0.53125 0.34375 1.234375q0 0.90625 -0.5 1.5625305q-0.5 0.640625 -1.34375 1.0q-0.828125 0.34375 -1.84375 0.34375z" fill-rule="nonzero"/><path fill="#000000" d="m68.09218 445.2925l-1.75 -1.375q1.921875 -1.859375 2.765625 -3.84375q0.859375 -2.0000305 0.859375 -4.5156555q0 -2.546875 -0.859375 -4.53125q-0.84375 -1.984375 -2.765625 -3.84375l1.75 -1.375q2.0625 1.828125 3.28125 4.28125q1.21875 2.453125 1.21875 5.46875q0 3.0 -1.21875 5.4531555q-1.21875 2.4375 -3.28125 4.28125z" fill-rule="nonzero"/><path fill="#000000" fill-opacity="0.0" d="m45.372704 601.54333l0 -132.40948" fill-rule="evenodd"/><path stroke="#000000" stroke-width="3.0" stroke-linejoin="round" stroke-linecap="butt" d="m45.372704 601.54333l0 -122.128235" fill-rule="evenodd"/><path fill="#000000" stroke="#000000" stroke-width="3.0" stroke-linecap="butt" d="m45.372704 479.41513l3.3737488 3.3737488l-3.3737488 -9.269318l-3.3737526 9.269318z" fill-rule="evenodd"/><path fill="#000000" fill-opacity="0.0" d="m45.372704 601.54333l238.4567 0" fill-rule="evenodd"/><path stroke="#000000" stroke-width="3.0" stroke-linejoin="round" stroke-linecap="butt" d="m45.372704 601.54333l228.17545 0" fill-rule="evenodd"/><path fill="#000000" stroke="#000000" stroke-width="3.0" stroke-linecap="butt" d="m273.54813 601.54333l-3.3737488 3.3737183l9.269318 -3.3737183l-9.269318 -3.3737793z" fill-rule="evenodd"/><path fill="#000000" fill-opacity="0.0" d="m10.018373 463.7953l34.58268 0l0 24.75589l-34.58268 0z" fill-rule="evenodd"/><path fill="#000000" d="m21.295597 472.52512l2.90625 0l2.953127 7.109375l3.25 -7.109375l2.906248 0l-7.093748 15.46875l-2.937502 0l2.328125 -4.984375l-4.3125 -10.484375z" fill-rule="nonzero"/><path fill="#000000" fill-opacity="0.0" d="m50.947506 617.91077l227.3071 0l0 24.75592l-227.3071 0z" fill-rule="evenodd"/><path fill="#000000" d="m97.60691 624.0381l-2.421875 2.140625q-1.28125 -1.78125 -2.59375 -1.78125q-0.65625 0 -1.0625 0.34375q-0.40625 0.34375 -0.40625 0.78125q0 0.4375 0.296875 0.8125q0.390625 0.515625 2.390625 2.21875q1.875 1.578125 2.28125 1.984375q1.0 1.0 1.40625 1.921875q0.421875 0.921875 0.421875 2.015625q0 2.125 -1.46875 3.515625q-1.46875 1.375 -3.8125 1.375q-1.84375 0 -3.21875 -0.90625q-1.359375 -0.90625 -2.328125 -2.84375l2.75 -1.65625q1.25 2.28125 2.859375 2.28125q0.84375 0 1.421875 -0.484375q0.578125 -0.5 0.578125 -1.140625q0 -0.59375 -0.4375 -1.171875q-0.4375 -0.59375 -1.90625 -1.796875q-2.8125 -2.296875 -3.640625 -3.546875q-0.8125 -1.25 -0.8125 -2.484375q0 -1.796875 1.359375 -3.078125q1.359375 -1.28125 3.375 -1.28125q1.28125 0 2.4375 0.59375q1.171875 0.59375 2.53125 2.1875zm3.4335938 -2.34375l3.484375 0q2.828125 0 4.078125 0.515625q1.25 0.515625 1.96875 1.6875q0.71875 1.171875 0.71875 2.796875q0 1.796875 -0.953125 3.0q-0.9375 1.1875 -2.546875 1.65625q-0.953125 0.28125 -3.46875 0.28125l0 7.296875l-3.28125 0l0 -17.234375zm3.28125 6.734375l1.046875 0q1.234375 0 1.703125 -0.171875q0.484375 -0.1875 0.765625 -0.578125q0.28125 -0.40625 0.28125 -0.984375q0 -1.0 -0.78125 -1.453125q-0.5625 -0.34375 -2.078125 -0.34375l-0.9375 0l0 3.53125zm10.191406 -6.734375l9.40625 0l0 3.203125l-6.15625 0l0 3.125l6.15625 0l0 3.140625l-6.15625 0l0 4.546875l6.15625 0l0 3.21875l-9.40625 0l0 -17.234375zm28.308586 3.03125l-2.296875 2.1875q-2.34375 -2.46875 -5.265625 -2.46875q-2.484375 0 -4.171875 1.6875q-1.6875 1.6875 -1.6875 4.15625q0 1.71875 0.75 3.0625q0.75 1.328125 2.109375 2.09375q1.375 0.765625 3.046875 0.765625q1.4375 0 2.609375 -0.53125q1.1875 -0.53125 2.609375 -1.9375l2.234375 2.3125q-1.921875 1.859375 -3.625 2.59375q-1.6875 0.71875 -3.875 0.71875q-4.015625 0 -6.578125 -2.546875q-2.5624924 -2.5625 -2.5624924 -6.546875q0 -2.578125 1.171875 -4.578125q1.1718674 -2.0 3.3437424 -3.21875q2.171875 -1.21875 4.671875 -1.21875q2.140625 0 4.109375 0.90625q1.984375 0.890625 3.40625 2.5625zm2.6367188 -3.03125l3.265625 0l0 17.234375l-3.265625 0l0 -17.234375zm6.9960938 0l8.5625 0l0 3.1875l-5.3125 0l0 3.140625l5.3125 0l0 3.140625l-5.3125 0l0 7.765625l-3.25 0l0 -17.234375zm10.238281 0l3.53125 0l3.21875 6.1875l3.1875 -6.1875l3.46875 0l-5.03125 9.765625l0 7.46875l-3.3125 0l0 -7.46875l-5.0625 -9.765625zm28.082031 0l3.328125 0l6.640625 17.234375l-3.421875 0l-1.34375 -3.546875l-7.03125 0l-1.40625 3.546875l-3.40625 0l6.640625 -17.234375zm1.6875 4.5625l-2.296875 5.921875l4.578125 0l-2.28125 -5.921875zm9.691406 -4.5625l3.6875 0l3.609375 5.515625l3.65625 -5.515625l3.6875 0l-5.484375 8.34375l5.828125 8.890625l-3.703125 0l-3.984375 -6.0625l-3.9375 6.0625l-3.71875 0l5.828125 -8.890625l-5.46875 -8.34375zm17.464844 0l9.40625 0l0 3.203125l-6.15625 0l0 3.125l6.15625 0l0 3.140625l-6.15625 0l0 4.546875l6.15625 0l0 3.21875l-9.40625 0l0 -17.234375zm21.496094 2.34375l-2.421875 2.140625q-1.28125 -1.78125 -2.59375 -1.78125q-0.65625 0 -1.0625 0.34375q-0.40625 0.34375 -0.40625 0.78125q0 0.4375 0.296875 0.8125q0.390625 0.515625 2.390625 2.21875q1.875 1.578125 2.28125 1.984375q1.0 1.0 1.40625 1.921875q0.421875 0.921875 0.421875 2.015625q0 2.125 -1.46875 3.515625q-1.46875 1.375 -3.8125 1.375q-1.84375 0 -3.21875 -0.90625q-1.359375 -0.90625 -2.328125 -2.84375l2.75 -1.65625q1.25 2.28125 2.859375 2.28125q0.84375 0 1.421875 -0.484375q0.578125 -0.5 0.578125 -1.140625q0 -0.59375 -0.4375 -1.171875q-0.4375 -0.59375 -1.90625 -1.796875q-2.8125 -2.296875 -3.640625 -3.546875q-0.8125 -1.25 -0.8125 -2.484375q0 -1.796875 1.359375 -3.078125q1.359375 -1.28125 3.375 -1.28125q1.28125 0 2.4375 0.59375q1.171875 0.59375 2.53125 2.1875z" fill-rule="nonzero"/><path fill="#000000" fill-opacity="0.0" d="m274.4987 601.54333l34.582672 0l0 24.75586l-34.582672 0z" fill-rule="evenodd"/><path fill="#000000" d="m286.2394 610.27313l3.296875 0l2.21875 3.09375l2.25 -3.09375l3.265625 0l-3.875 5.359375l4.359375 5.96875l-3.296875 0l-2.703125 -3.71875l-2.671875 3.71875l-3.25 0l4.28125 -5.96875l-3.875 -5.359375z" fill-rule="nonzero"/><path fill="#9fc5e8" d="m144.6322 505.31216l101.38582 -58.53543l-9.755905 -16.897644l53.3071 14.283478l-14.283478 53.307068l-9.75589 -16.897644l-101.38583 58.53543l7.141739 -26.653503z" fill-rule="evenodd"/><path stroke="#000000" stroke-width="3.0" stroke-linejoin="round" stroke-linecap="butt" d="m144.6322 505.31216l101.38582 -58.53543l-9.755905 -16.897644l53.3071 14.283478l-14.283478 53.307068l-9.75589 -16.897644l-101.38583 58.53543l7.141739 -26.653503z" fill-rule="evenodd"/></g></svg>