<svg version="1.1" viewBox="0.0 0.0 995.5196850393701 660.6640419947506" fill="none" stroke="none" stroke-linecap="square" stroke-miterlimit="10" xmlns:xlink="http://www.w3.org/1999/xlink" xmlns="http://www.w3.org/2000/svg"><clipPath id="p.0"><path d="m0 0l995.5197 0l0 660.66406l-995.5197 0l0 -660.66406z" clip-rule="nonzero"/></clipPath><g clip-path="url(#p.0)"><path fill="#000000" fill-opacity="0.0" d="m0 0l995.5197 0l0 660.66406l-995.5197 0z" fill-rule="evenodd"/><path fill="#000000" fill-opacity="0.0" d="m45.372704 601.54333l0 -132.40948" fill-rule="evenodd"/><path stroke="#000000" stroke-width="3.0" stroke-linejoin="round" stroke-linecap="butt" d="m45.372704 601.54333l0 -122.128235" fill-rule="evenodd"/><path fill="#000000" stroke="#000000" stroke-width="3.0" stroke-linecap="butt" d="m45.372704 479.41513l3.3737488 3.3737488l-3.3737488 -9.269318l-3.3737526 9.269318z" fill-rule="evenodd"/><path fill="#000000" fill-opacity="0.0" d="m45.372704 601.54333l238.4567 0" fill-rule="evenodd"/><path stroke="#000000" stroke-width="3.0" stroke-linejoin="round" stroke-linecap="butt" d="m45.372704 601.54333l228.17545 0" fill-rule="evenodd"/><path fill="#000000" stroke="#000000" stroke-width="3.0" stroke-linecap="butt" d="m273.54813 601.54333l-3.3737488 3.3737183l9.269318 -3.3737183l-9.269318 -3.3737793z" fill-rule="evenodd"/><path fill="#000000" fill-opacity="0.0" d="m10.018373 463.7953l34.58268 0l0 24.75589l-34.58268 0z" fill-rule="evenodd"/><path fill="#000000" d="m21.295597 472.52512l2.90625 0l2.953127 7.109375l3.25 -7.109375l2.906248 0l-7.093748 15.46875l-2.937502 0l2.328125 -4.984375l-4.3125 -10.484375z" fill-rule="nonzero"/><path fill="#000000" fill-opacity="0.0" d="m50.947506 617.91077l227.3071 0l0 24.75592l-227.3071 0z" fill-rule="evenodd"/><path fill="#000000" d="m97.60691 624.0381l-2.421875 2.140625q-1.28125 -1.78125 -2.59375 -1.78125q-0.65625 0 -1.0625 0.34375q-0.40625 0.34375 -0.40625 0.78125q0 0.4375 0.296875 0.8125q0.390625 0.515625 2.390625 2.21875q1.875 1.578125 2.28125 1.984375q1.0 1.0 1.40625 1.921875q0.421875 0.921875 0.421875 2.015625q0 2.125 -1.46875 3.515625q-1.46875 1.375 -3.8125 1.375q-1.84375 0 -3.21875 -0.90625q-1.359375 -0.90625 -2.328125 -2.84375l2.75 -1.65625q1.25 2.28125 2.859375 2.28125q0.84375 0 1.421875 -0.484375q0.578125 -0.5 0.578125 -1.140625q0 -0.59375 -0.4375 -1.171875q-0.4375 -0.59375 -1.90625 -1.796875q-2.8125 -2.296875 -3.640625 -3.546875q-0.8125 -1.25 -0.8125 -2.484375q0 -1.796875 1.359375 -3.078125q1.359375 -1.28125 3.375 -1.28125q1.28125 0 2.4375 0.59375q1.171875 0.59375 2.53125 2.1875zm3.4335938 -2.34375l3.484375 0q2.828125 0 4.078125 0.515625q1.25 0.515625 1.96875 1.6875q0.71875 1.171875 0.71875 2.796875q0 1.796875 -0.953125 3.0q-0.9375 1.1875 -2.546875 1.65625q-0.953125 0.28125 -3.46875 0.28125l0 7.296875l-3.28125 0l0 -17.234375zm3.28125 6.734375l1.046875 0q1.234375 0 1.703125 -0.171875q0.484375 -0.1875 0.765625 -0.578125q0.28125 -0.40625 0.28125 -0.984375q0 -1.0 -0.78125 -1.453125q-0.5625 -0.34375 -2.078125 -0.34375l-0.9375 0l0 3.53125zm10.191406 -6.734375l9.40625 0l0 3.203125l-6.15625 0l0 3.125l6.15625 0l0 3.140625l-6.15625 0l0 4.546875l6.15625 0l0 3.21875l-9.40625 0l0 -17.234375zm28.308586 3.03125l-2.296875 2.1875q-2.34375 -2.46875 -5.265625 -2.46875q-2.484375 0 -4.171875 1.6875q-1.6875 1.6875 -1.6875 4.15625q0 1.71875 0.75 3.0625q0.75 1.328125 2.109375 2.09375q1.375 0.765625 3.046875 0.765625q1.4375 0 2.609375 -0.53125q1.1875 -0.53125 2.609375 -1.9375l2.234375 2.3125q-1.921875 1.859375 -3.625 2.59375q-1.6875 0.71875 -3.875 0.71875q-4.015625 0 -6.578125 -2.546875q-2.5624924 -2.5625 -2.5624924 -6.546875q0 -2.578125 1.171875 -4.578125q1.1718674 -2.0 3.3437424 -3.21875q2.171875 -1.21875 4.671875 -1.21875q2.140625 0 4.109375 0.90625q1.984375 0.890625 3.40625 2.5625zm2.6367188 -3.03125l3.265625 0l0 17.234375l-3.265625 0l0 -17.234375zm6.9960938 0l8.5625 0l0 3.1875l-5.3125 0l0 3.140625l5.3125 0l0 3.140625l-5.3125 0l0 7.765625l-3.25 0l0 -17.234375zm10.238281 0l3.53125 0l3.21875 6.1875l3.1875 -6.1875l3.46875 0l-5.03125 9.765625l0 7.46875l-3.3125 0l0 -7.46875l-5.0625 -9.765625zm28.082031 0l3.328125 0l6.640625 17.234375l-3.421875 0l-1.34375 -3.546875l-7.03125 0l-1.40625 3.546875l-3.40625 0l6.640625 -17.234375zm1.6875 4.5625l-2.296875 5.921875l4.578125 0l-2.28125 -5.921875zm9.691406 -4.5625l3.6875 0l3.609375 5.515625l3.65625 -5.515625l3.6875 0l-5.484375 8.34375l5.828125 8.890625l-3.703125 0l-3.984375 -6.0625l-3.9375 6.0625l-3.71875 0l5.828125 -8.890625l-5.46875 -8.34375zm17.464844 0l9.40625 0l0 3.203125l-6.15625 0l0 3.125l6.15625 0l0 3.140625l-6.15625 0l0 4.546875l6.15625 0l0 3.21875l-9.40625 0l0 -17.234375zm21.496094 2.34375l-2.421875 2.140625q-1.28125 -1.78125 -2.59375 -1.78125q-0.65625 0 -1.0625 0.34375q-0.40625 0.34375 -0.40625 0.78125q0 0.4375 0.296875 0.8125q0.390625 0.515625 2.390625 2.21875q1.875 1.578125 2.28125 1.984375q1.0 1.0 1.40625 1.921875q0.421875 0.921875 0.421875 2.015625q0 2.125 -1.46875 3.515625q-1.46875 1.375 -3.8125 1.375q-1.84375 0 -3.21875 -0.90625q-1.359375 -0.90625 -2.328125 -2.84375l2.75 -1.65625q1.25 2.28125 2.859375 2.28125q0.84375 0 1.421875 -0.484375q0.578125 -0.5 0.578125 -1.140625q0 -0.59375 -0.4375 -1.171875q-0.4375 -0.59375 -1.90625 -1.796875q-2.8125 -2.296875 -3.640625 -3.546875q-0.8125 -1.25 -0.8125 -2.484375q0 -1.796875 1.359375 -3.078125q1.359375 -1.28125 3.375 -1.28125q1.28125 0 2.4375 0.59375q1.171875 0.59375 2.53125 2.1875z" fill-rule="nonzero"/><path fill="#000000" fill-opacity="0.0" d="m274.4987 601.54333l34.582672 0l0 24.75586l-34.582672 0z" fill-rule="evenodd"/><path fill="#000000" d="m286.2394 610.27313l3.296875 0l2.21875 3.09375l2.25 -3.09375l3.265625 0l-3.875 5.359375l4.359375 5.96875l-3.296875 0l-2.703125 -3.71875l-2.671875 3.71875l-3.25 0l4.28125 -5.96875l-3.875 -5.359375z" fill-rule="nonzero"/></g></svg>