<svg version="1.1" viewBox="0.0 0.0 995.5196850393701 660.6640419947506" fill="none" stroke="none" stroke-linecap="square" stroke-miterlimit="10" xmlns:xlink="http://www.w3.org/1999/xlink" xmlns="http://www.w3.org/2000/svg"><clipPath id="p.0"><path d="m0 0l995.5197 0l0 660.66406l-995.5197 0l0 -660.66406z" clip-rule="nonzero"/></clipPath><g clip-path="url(#p.0)"><path fill="#000000" fill-opacity="0.0" d="m0 0l995.5197 0l0 660.66406l-995.5197 0z" fill-rule="evenodd"/><path fill="#000000" fill-opacity="0.0" d="m45.372704 601.54333l0 -132.40948" fill-rule="evenodd"/><path stroke="#000000" stroke-width="3.0" stroke-linejoin="round" stroke-linecap="butt" d="m45.372704 601.54333l0 -122.128235" fill-rule="evenodd"/><path fill="#000000" stroke="#000000" stroke-width="3.0" stroke-linecap="butt" d="m45.372704 479.41513l3.3737488 3.3737488l-3.3737488 -9.269318l-3.3737526 9.269318z" fill-rule="evenodd"/><path fill="#000000" fill-opacity="0.0" d="m45.372704 601.54333l238.4567 0" fill-rule="evenodd"/><path stroke="#000000" stroke-width="3.0" stroke-linejoin="round" stroke-linecap="butt" d="m45.372704 601.54333l228.17545 0" fill-rule="evenodd"/><path fill="#000000" stroke="#000000" stroke-width="3.0" stroke-linecap="butt" d="m273.54813 601.54333l-3.3737488 3.3737183l9.269318 -3.3737183l-9.269318 -3.3737793z" fill-rule="evenodd"/><path fill="#000000" fill-opacity="0.0" d="m10.018373 463.7953l34.58268 0l0 24.75589l-34.58268 0z" fill-rule="evenodd"/><path fill="#000000" d="m21.295597 472.52512l2.90625 0l2.953127 7.109375l3.25 -7.109375l2.906248 0l-7.093748 15.46875l-2.937502 0l2.328125 -4.984375l-4.3125 -10.484375z" fill-rule="nonzero"/><path fill="#000000" fill-opacity="0.0" d="m50.947506 617.91077l227.3071 0l0 24.75592l-227.3071 0z" fill-rule="evenodd"/><path fill="#000000" d="m97.60691 624.0381l-2.421875 2.140625q-1.28125 -1.78125 -2.59375 -1.78125q-0.65625 0 -1.0625 0.34375q-0.40625 0.34375 -0.40625 0.78125q0 0.4375 0.296875 0.8125q0.390625 0.515625 2.390625 2.21875q1.875 1.578125 2.28125 1.984375q1.0 1.0 1.40625 1.921875q0.421875 0.921875 0.421875 2.015625q0 2.125 -1.46875 3.515625q-1.46875 1.375 -3.8125 1.375q-1.84375 0 -3.21875 -0.90625q-1.359375 -0.90625 -2.328125 -2.84375l2.75 -1.65625q1.25 2.28125 2.859375 2.28125q0.84375 0 1.421875 -0.484375q0.578125 -0.5 0.578125 -1.140625q0 -0.59375 -0.4375 -1.171875q-0.4375 -0.59375 -1.90625 -1.796875q-2.8125 -2.296875 -3.640625 -3.546875q-0.8125 -1.25 -0.8125 -2.484375q0 -1.796875 1.359375 -3.078125q1.359375 -1.28125 3.375 -1.28125q1.28125 0 2.4375 0.59375q1.171875 0.59375 2.53125 2.1875zm3.4335938 -2.34375l3.484375 0q2.828125 0 4.078125 0.515625q1.25 0.515625 1.96875 1.6875q0.71875 1.171875 0.71875 2.796875q0 1.796875 -0.953125 3.0q-0.9375 1.1875 -2.546875 1.65625q-0.953125 0.28125 -3.46875 0.28125l0 7.296875l-3.28125 0l0 -17.234375zm3.28125 6.734375l1.046875 0q1.234375 0 1.703125 -0.171875q0.484375 -0.1875 0.765625 -0.578125q0.28125 -0.40625 0.28125 -0.984375q0 -1.0 -0.78125 -1.453125q-0.5625 -0.34375 -2.078125 -0.34375l-0.9375 0l0 3.53125zm10.191406 -6.734375l9.40625 0l0 3.203125l-6.15625 0l0 3.125l6.15625 0l0 3.140625l-6.15625 0l0 4.546875l6.15625 0l0 3.21875l-9.40625 0l0 -17.234375zm28.308586 3.03125l-2.296875 2.1875q-2.34375 -2.46875 -5.265625 -2.46875q-2.484375 0 -4.171875 1.6875q-1.6875 1.6875 -1.6875 4.15625q0 1.71875 0.75 3.0625q0.75 1.328125 2.109375 2.09375q1.375 0.765625 3.046875 0.765625q1.4375 0 2.609375 -0.53125q1.1875 -0.53125 2.609375 -1.9375l2.234375 2.3125q-1.921875 1.859375 -3.625 2.59375q-1.6875 0.71875 -3.875 0.71875q-4.015625 0 -6.578125 -2.546875q-2.5624924 -2.5625 -2.5624924 -6.546875q0 -2.578125 1.171875 -4.578125q1.1718674 -2.0 3.3437424 -3.21875q2.171875 -1.21875 4.671875 -1.21875q2.140625 0 4.109375 0.90625q1.984375 0.890625 3.40625 2.5625zm2.6367188 -3.03125l3.265625 0l0 17.234375l-3.265625 0l0 -17.234375zm6.9960938 0l8.5625 0l0 3.1875l-5.3125 0l0 3.140625l5.3125 0l0 3.140625l-5.3125 0l0 7.765625l-3.25 0l0 -17.234375zm10.238281 0l3.53125 0l3.21875 6.1875l3.1875 -6.1875l3.46875 0l-5.03125 9.765625l0 7.46875l-3.3125 0l0 -7.46875l-5.0625 -9.765625zm28.082031 0l3.328125 0l6.640625 17.234375l-3.421875 0l-1.34375 -3.546875l-7.03125 0l-1.40625 3.546875l-3.40625 0l6.640625 -17.234375zm1.6875 4.5625l-2.296875 5.921875l4.578125 0l-2.28125 -5.921875zm9.691406 -4.5625l3.6875 0l3.609375 5.515625l3.65625 -5.515625l3.6875 0l-5.484375 8.34375l5.828125 8.890625l-3.703125 0l-3.984375 -6.0625l-3.9375 6.0625l-3.71875 0l5.828125 -8.890625l-5.46875 -8.34375zm17.464844 0l9.40625 0l0 3.203125l-6.15625 0l0 3.125l6.15625 0l0 3.140625l-6.15625 0l0 4.546875l6.15625 0l0 3.21875l-9.40625 0l0 -17.234375zm21.496094 2.34375l-2.421875 2.140625q-1.28125 -1.78125 -2.59375 -1.78125q-0.65625 0 -1.0625 0.34375q-0.40625 0.34375 -0.40625 0.78125q0 0.4375 0.296875 0.8125q0.390625 0.515625 2.390625 2.21875q1.875 1.578125 2.28125 1.984375q1.0 1.0 1.40625 1.921875q0.421875 0.921875 0.421875 2.015625q0 2.125 -1.46875 3.515625q-1.46875 1.375 -3.8125 1.375q-1.84375 0 -3.21875 -0.90625q-1.359375 -0.90625 -2.328125 -2.84375l2.75 -1.65625q1.25 2.28125 2.859375 2.28125q0.84375 0 1.421875 -0.484375q0.578125 -0.5 0.578125 -1.140625q0 -0.59375 -0.4375 -1.171875q-0.4375 -0.59375 -1.90625 -1.796875q-2.8125 -2.296875 -3.640625 -3.546875q-0.8125 -1.25 -0.8125 -2.484375q0 -1.796875 1.359375 -3.078125q1.359375 -1.28125 3.375 -1.28125q1.28125 0 2.4375 0.59375q1.171875 0.59375 2.53125 2.1875z" fill-rule="nonzero"/><path fill="#000000" fill-opacity="0.0" d="m274.4987 601.54333l34.582672 0l0 24.75586l-34.582672 0z" fill-rule="evenodd"/><path fill="#000000" d="m286.2394 610.27313l3.296875 0l2.21875 3.09375l2.25 -3.09375l3.265625 0l-3.875 5.359375l4.359375 5.96875l-3.296875 0l-2.703125 -3.71875l-2.671875 3.71875l-3.25 0l4.28125 -5.96875l-3.875 -5.359375z" fill-rule="nonzero"/><path fill="#000000" fill-opacity="0.0" d="m320.1824 410.36746l0 -132.40945" fill-rule="evenodd"/><path stroke="#000000" stroke-width="3.0" stroke-linejoin="round" stroke-linecap="butt" d="m320.1824 410.36746l0 -122.128204" fill-rule="evenodd"/><path fill="#000000" stroke="#000000" stroke-width="3.0" stroke-linecap="butt" d="m320.1824 288.23926l3.3737488 3.3737488l-3.3737488 -9.269287l-3.3737488 9.269287z" fill-rule="evenodd"/><path fill="#000000" fill-opacity="0.0" d="m320.1824 410.36746l238.4567 0" fill-rule="evenodd"/><path stroke="#000000" stroke-width="3.0" stroke-linejoin="round" stroke-linecap="butt" d="m320.1824 410.36746l228.17545 0" fill-rule="evenodd"/><path fill="#000000" stroke="#000000" stroke-width="3.0" stroke-linecap="butt" d="m548.35785 410.36746l-3.3737793 3.3737488l9.269348 -3.3737488l-9.269348 -3.3737488z" fill-rule="evenodd"/><path fill="#000000" fill-opacity="0.0" d="m284.8281 272.61942l34.582672 0l0 24.75592l-34.582672 0z" fill-rule="evenodd"/><path fill="#000000" d="m296.10532 281.34924l2.90625 0l2.953125 7.109375l3.25 -7.109375l2.90625 0l-7.09375 15.46875l-2.9375 0l2.328125 -4.984375l-4.3125 -10.484375z" fill-rule="nonzero"/><path fill="#000000" fill-opacity="0.0" d="m316.46588 424.65353l245.88977 0l0 55.55905l-245.88977 0z" fill-rule="evenodd"/><path fill="#000000" d="m374.1549 429.4387l3.328125 0l6.640625 17.234375l-3.421875 0l-1.34375 -3.546875l-7.03125 0l-1.40625 3.546875l-3.40625 0l6.640625 -17.234375zm1.6875 4.5625l-2.296875 5.921875l4.578125 0l-2.28125 -5.921875zm10.832031 -4.5625l3.890625 0q3.765625 0 5.59375 0.9375q1.828125 0.921875 3.0 3.015625q1.1875 2.09375 1.1875 4.90625q0 1.984375 -0.671875 3.65625q-0.65625 1.671875 -1.828125 2.78125q-1.15625 1.09375 -2.515625 1.515625q-1.359375 0.421875 -4.703125 0.421875l-3.953125 0l0 -17.234375zm3.265625 3.15625l0 10.859375l1.53125 0q2.25 0 3.25 -0.515625q1.015625 -0.515625 1.65625 -1.734375q0.65625 -1.21875 0.65625 -3.0q0 -2.734375 -1.53125 -4.25q-1.390625 -1.359375 -4.453125 -1.359375l-1.109375 0zm13.5390625 -3.15625l3.890625 0q3.765625 0 5.59375 0.9375q1.828125 0.921875 3.0 3.015625q1.1875 2.09375 1.1875 4.90625q0 1.984375 -0.671875 3.65625q-0.65625 1.671875 -1.828125 2.78125q-1.15625 1.09375 -2.515625 1.515625q-1.359375 0.421875 -4.703125 0.421875l-3.953125 0l0 -17.234375zm3.265625 3.15625l0 10.859375l1.53125 0q2.25 0 3.25 -0.515625q1.015625 -0.515625 1.65625 -1.734375q0.65625 -1.21875 0.65625 -3.0q0 -2.734375 -1.53125 -4.25q-1.390625 -1.359375 -4.453125 -1.359375l-1.109375 0zm36.160156 -0.34375l-2.3125 2.28125q-2.1875 -2.328125 -5.109375 -2.328125q-2.546875 0 -4.265625 1.6875q-1.71875 1.6875 -1.71875 4.109375q0 2.5 1.78125 4.234375q1.78125 1.734375 4.40625 1.734375q1.6875 0 2.859375 -0.71875q1.171875 -0.71875 1.875 -2.234375l-4.984375 0l0 -3.09375l8.671875 0l0.015625 0.734375q0 2.265625 -1.171875 4.296875q-1.171875 2.015625 -3.03125 3.09375q-1.859375 1.0625 -4.375 1.0625q-2.671875 0 -4.78125 -1.171875q-2.109375 -1.171875 -3.328125 -3.328125q-1.21875 -2.15625 -1.21875 -4.640625q0 -3.421875 2.25 -5.953125q2.6875 -3.015625 6.984375 -3.015625q2.25 0 4.21875 0.828125q1.640625 0.703125 3.234375 2.421875zm4.25 -2.8125l9.40625 0l0 3.203125l-6.15625 0l0 3.125l6.15625 0l0 3.140625l-6.15625 0l0 4.546875l6.15625 0l0 3.21875l-9.40625 0l0 -17.234375zm20.605469 -0.4375q3.65625 0 6.28125 2.65625q2.640625 2.640625 2.640625 6.453125q0 3.765625 -2.59375 6.390625q-2.59375 2.609375 -6.296875 2.609375q-3.875 0 -6.453125 -2.6875q-2.5625 -2.6875 -2.5625 -6.375q0 -2.46875 1.1875 -4.546875q1.203125 -2.078125 3.296875 -3.28125q2.09375 -1.21875 4.5 -1.21875zm-0.03125 3.203125q-2.390625 0 -4.015625 1.671875q-1.625 1.65625 -1.625 4.234375q0 2.859375 2.046875 4.515625q1.59375 1.296875 3.65625 1.296875q2.328125 0 3.96875 -1.6875q1.640625 -1.6875 1.640625 -4.15625q0 -2.453125 -1.65625 -4.15625q-1.640625 -1.71875 -4.015625 -1.71875zm13.71875 -2.765625l3.203125 0l3.984375 12.015625l4.046875 -12.015625l3.15625 0l2.90625 17.234375l-3.15625 0l-1.859375 -10.890625l-3.65625 10.890625l-2.90625 0l-3.609375 -10.890625l-1.890625 10.890625l-3.203125 0l2.984375 -17.234375zm28.957031 2.34375l-2.421875 2.140625q-1.28125 -1.78125 -2.59375 -1.78125q-0.65625 0 -1.0625 0.34375q-0.40625 0.34375 -0.40625 0.78125q0 0.4375 0.296875 0.8125q0.390625 0.515625 2.390625 2.21875q1.875 1.578125 2.28125 1.984375q1.0 1.0 1.40625 1.921875q0.421875 0.921875 0.421875 2.015625q0 2.125 -1.46875 3.515625q-1.46875 1.375 -3.8125 1.375q-1.84375 0 -3.21875 -0.90625q-1.359375 -0.90625 -2.328125 -2.84375l2.75 -1.65625q1.25 2.28125 2.859375 2.28125q0.84375 0 1.421875 -0.484375q0.578125 -0.5 0.578125 -1.140625q0 -0.59375 -0.4375 -1.171875q-0.4375 -0.59375 -1.90625 -1.796875q-2.8125 -2.296875 -3.640625 -3.546875q-0.8125 -1.25 -0.8125 -2.484375q0 -1.796875 1.359375 -3.078125q1.359375 -1.28125 3.375 -1.28125q1.28125 0 2.4375 0.59375q1.171875 0.59375 2.53125 2.1875z" fill-rule="nonzero"/><path fill="#000000" d="m401.57874 457.47308l1.890625 0q-1.140625 2.359375 -1.84375 5.5q-0.6875 3.140625 -0.6875 6.46875q0 3.09375 0.515625 5.96875q0.53125 2.875 1.4375 5.0625l-1.796875 0q-0.875 -2.09375 -1.390625 -4.921875q-0.515625 -2.828125 -0.515625 -5.875q0 -3.296875 0.609375 -6.421875q0.609375 -3.125 1.78125 -5.78125zm5.203125 5.25l1.625 0l0 2.34375q0.96875 -1.34375 2.234375 -2.0q1.265625 -0.671875 2.828125 -0.671875q2.71875 0 4.640625 1.953125q1.9375 1.953125 1.9375 4.71875q0 2.8125 -1.921875 4.78125q-1.90625 1.953125 -4.609375 1.953125q-1.53125 0 -2.8125 -0.625q-1.265625 -0.640625 -2.296875 -1.890625l0 6.859375l-1.625 0l0 -17.421875zm6.5625 1.25q-2.140625 0 -3.609375 1.5q-1.453125 1.484375 -1.453125 3.6875q0 1.453125 0.65625 2.625q0.65625 1.15625 1.859375 1.84375q1.21875 0.671875 2.5625 0.671875q1.328125 0 2.484375 -0.6875q1.171875 -0.6875 1.859375 -1.90625q0.703125 -1.234375 0.703125 -2.59375q0 -1.359375 -0.6875 -2.578125q-0.6875 -1.21875 -1.859375 -1.890625q-1.15625 -0.671875 -2.515625 -0.671875zm15.808594 -1.578125q2.953125 0 4.875 2.125q1.765625 1.953125 1.765625 4.609375q0 2.671875 -1.859375 4.671875q-1.859375 2.0 -4.78125 2.0q-2.921875 0 -4.78125 -2.0q-1.859375 -2.0 -1.859375 -4.671875q0 -2.640625 1.765625 -4.59375q1.921875 -2.140625 4.875 -2.140625zm0 1.609375q-2.03125 0 -3.5 1.515625q-1.46875 1.5 -1.46875 3.640625q0 1.390625 0.671875 2.59375q0.671875 1.1875 1.796875 1.84375q1.140625 0.640625 2.5 0.640625q1.359375 0 2.5 -0.640625q1.140625 -0.65625 1.796875 -1.84375q0.671875 -1.203125 0.671875 -2.59375q0 -2.140625 -1.46875 -3.640625q-1.46875 -1.515625 -3.5 -1.515625zm10.261719 -6.53125q0.5625 0 0.953125 0.40625q0.40625 0.390625 0.40625 0.953125q0 0.546875 -0.40625 0.953125q-0.390625 0.390625 -0.953125 0.390625q-0.546875 0 -0.953125 -0.390625q-0.390625 -0.40625 -0.390625 -0.953125q0 -0.5625 0.390625 -0.953125q0.40625 -0.40625 0.953125 -0.40625zm-0.828125 5.25l1.65625 0l0 12.75l-1.65625 0l0 -12.75zm5.0546875 0l1.640625 0l0 2.28125q0.984375 -1.3125 2.171875 -1.953125q1.203125 -0.65625 2.609375 -0.65625q1.4375 0 2.53125 0.734375q1.109375 0.71875 1.640625 1.953125q0.53125 1.21875 0.53125 3.828125l0 6.5625l-1.625 0l0 -6.078125q0 -2.203125 -0.1875 -2.953125q-0.296875 -1.265625 -1.109375 -1.890625q-0.8125 -0.640625 -2.109375 -0.640625q-1.484375 0 -2.671875 0.984375q-1.171875 0.984375 -1.546875 2.4375q-0.234375 0.9375 -0.234375 3.46875l0 4.671875l-1.640625 0l0 -12.75zm16.074219 -4.734375l1.640625 0l0 4.734375l2.609375 0l0 1.40625l-2.609375 0l0 11.34375l-1.640625 0l0 -11.34375l-2.25 0l0 -1.40625l2.25 0l0 -4.734375zm13.1015625 6.125l-1.046875 1.09375q-1.3125 -1.28125 -2.5625 -1.28125q-0.796875 0 -1.375 0.53125q-0.5625 0.53125 -0.5625 1.234375q0 0.609375 0.46875 1.171875q0.46875 0.578125 1.96875 1.359375q1.828125 0.9375 2.484375 1.828125q0.640625 0.890625 0.640625 2.0q0 1.5625 -1.109375 2.65625q-1.09375 1.09375 -2.75 1.09375q-1.09375 0 -2.09375 -0.484375q-1.0 -0.484375 -1.65625 -1.328125l1.03125 -1.171875q1.25 1.421875 2.65625 1.421875q0.984375 0 1.671875 -0.625q0.6875 -0.640625 0.6875 -1.5q0 -0.703125 -0.453125 -1.25q-0.453125 -0.53125 -2.0625 -1.359375q-1.71875 -0.890625 -2.34375 -1.75q-0.625 -0.875 -0.625 -1.984375q0 -1.453125 0.984375 -2.40625q1.0 -0.96875 2.515625 -0.96875q1.75 0 3.53125 1.71875zm4.4414062 16.359375l-1.90625 0q1.15625 -2.359375 1.84375 -5.5q0.6875 -3.140625 0.6875 -6.484375q0 -3.09375 -0.53125 -5.96875q-0.515625 -2.875 -1.421875 -5.046875l1.796875 0q0.890625 2.078125 1.390625 4.921875q0.515625 2.828125 0.515625 5.875q0 3.28125 -0.609375 6.40625q-0.609375 3.125 -1.765625 5.796875z" fill-rule="nonzero"/><path fill="#000000" fill-opacity="0.0" d="m549.3084 410.36746l34.58264 0l0 24.75589l-34.58264 0z" fill-rule="evenodd"/><path fill="#000000" d="m561.04913 419.0973l3.296875 0l2.21875 3.09375l2.25 -3.09375l3.265625 0l-3.875 5.359375l4.359375 5.96875l-3.296875 0l-2.703125 -3.71875l-2.671875 3.71875l-3.25 0l4.28125 -5.96875l-3.875 -5.359375z" fill-rule="nonzero"/><path fill="#0000ff" d="m736.4896 105.67008l0 0c0 -3.357193 2.7215576 -6.078743 6.0787354 -6.078743l0 0c1.6121826 0 3.1583252 0.6404419 4.29834 1.780426c1.1399536 1.1399841 1.7803955 2.6861343 1.7803955 4.298317l0 0c0 3.357193 -2.7215576 6.078743 -6.0787354 6.078743l0 0c-3.3571777 0 -6.0787354 -2.72155 -6.0787354 -6.078743z" fill-rule="evenodd"/><path fill="#0000ff" d="m718.92914 138.66496l0 0c0 -3.357193 2.7215576 -6.0787354 6.0787354 -6.0787354l0 0c1.6121826 0 3.1583252 0.64042664 4.29834 1.7804108c1.1399536 1.1399841 1.7803955 2.686142 1.7803955 4.2983246l0 0c0 3.357193 -2.7215576 6.0787354 -6.0787354 6.0787354l0 0c-3.3571777 0 -6.0787354 -2.7215424 -6.0787354 -6.0787354z" fill-rule="evenodd"/><path fill="#0000ff" d="m754.2939 132.97964l0 0c0 -3.357193 2.7214966 -6.0787354 6.0787354 -6.0787354l0 0c1.6121826 0 3.1583252 0.64043427 4.298279 1.780426c1.1400146 1.1399841 1.7804565 2.6861267 1.7804565 4.2983093l0 0c0 3.357193 -2.7215576 6.0787506 -6.0787354 6.0787506l0 0c-3.3572388 0 -6.0787354 -2.7215576 -6.0787354 -6.0787506z" fill-rule="evenodd"/><path fill="#0000ff" d="m766.46094 84.329796l0 0c0 -3.3572006 2.7214966 -6.078743 6.0787354 -6.078743l0 0c1.6121826 0 3.1583252 0.64043427 4.298279 1.780426c1.1400146 1.1399841 1.7804565 2.6861343 1.7804565 4.298317l0 0c0 3.357193 -2.7215576 6.0787354 -6.0787354 6.0787354l0 0c-3.3572388 0 -6.0787354 -2.7215424 -6.0787354 -6.0787354z" fill-rule="evenodd"/><path fill="#0000ff" d="m784.7753 108.66391l0 0c0 -3.357193 2.7214966 -6.0787354 6.0787354 -6.0787354l0 0c1.6121826 0 3.1583252 0.64043427 4.298279 1.7804184c1.1400146 1.1399841 1.7804565 2.6861343 1.7804565 4.298317l0 0c0 3.3572006 -2.7215576 6.078743 -6.0787354 6.078743l0 0c-3.3572388 0 -6.0787354 -2.7215424 -6.0787354 -6.078743z" fill-rule="evenodd"/><path fill="#0000ff" d="m799.48535 72.17193l0 0c0 -3.3572006 2.7215576 -6.078743 6.0787354 -6.078743l0 0c1.6121826 0 3.1583252 0.64043427 4.29834 1.7804184c1.1399536 1.1399841 1.7803955 2.686142 1.7803955 4.2983246l0 0c0 3.357193 -2.7215576 6.0787354 -6.0787354 6.0787354l0 0c-3.3571777 0 -6.0787354 -2.7215424 -6.0787354 -6.0787354z" fill-rule="evenodd"/><path fill="#0000ff" d="m838.71246 105.66915l0 0c0 -3.357193 2.7215576 -6.0787354 6.0787354 -6.0787354l0 0c1.6121826 0 3.1583862 0.64043427 4.29834 1.7804184c1.1400146 1.1399841 1.7803955 2.6861343 1.7803955 4.298317l0 0c0 3.3572006 -2.7214966 6.078743 -6.0787354 6.078743l0 0c-3.3571777 0 -6.0787354 -2.7215424 -6.0787354 -6.078743z" fill-rule="evenodd"/><path fill="#0000ff" d="m826.5531 65.414696l0 0c0 -3.357193 2.7215576 -6.078739 6.0787354 -6.078739l0 0c1.6121826 0 3.1583252 0.6404381 4.29834 1.7804222c1.1399536 1.1399841 1.7803955 2.6861382 1.7803955 4.298317l0 0c0 3.3572006 -2.7215576 6.078743 -6.0787354 6.078743l0 0c-3.3571777 0 -6.0787354 -2.7215424 -6.0787354 -6.078743z" fill-rule="evenodd"/><path fill="#0000ff" d="m341.86633 348.96484l0 0c0 -3.3572083 2.721527 -6.078766 6.0787354 -6.078766l0 0c1.6121826 0 3.1583252 0.6404419 4.2983093 1.780426c1.1399841 1.1399841 1.780426 2.6861572 1.780426 4.29834l0 0c0 3.3571777 -2.7215576 6.0787354 -6.0787354 6.0787354l0 0c-3.3572083 0 -6.0787354 -2.7215576 -6.0787354 -6.0787354z" fill-rule="evenodd"/><path fill="#000000" fill-opacity="0.0" d="m706.7664 154.47113l0 -132.40945" fill-rule="evenodd"/><path stroke="#000000" stroke-width="3.0" stroke-linejoin="round" stroke-linecap="butt" d="m706.7664 154.47113l0 -122.12819" fill-rule="evenodd"/><path fill="#000000" stroke="#000000" stroke-width="3.0" stroke-linecap="butt" d="m706.7664 32.34294l3.3737183 3.3737488l-3.3737183 -9.269304l-3.3737793 9.269304z" fill-rule="evenodd"/><path fill="#000000" fill-opacity="0.0" d="m706.7664 154.47113l191.43304 0" fill-rule="evenodd"/><path stroke="#000000" stroke-width="3.0" stroke-linejoin="round" stroke-linecap="butt" d="m706.7664 154.47113l181.1518 0" fill-rule="evenodd"/><path fill="#000000" stroke="#000000" stroke-width="3.0" stroke-linecap="butt" d="m887.9182 154.47113l-3.3737183 3.3737488l9.269287 -3.3737488l-9.269287 -3.3737488z" fill-rule="evenodd"/><path fill="#000000" fill-opacity="0.0" d="m671.41205 16.723097l34.582703 0l0 24.755907l-34.582703 0z" fill-rule="evenodd"/><path fill="#000000" d="m682.6893 25.452925l2.90625 0l2.953125 7.109377l3.25 -7.109377l2.90625 0l-7.09375 15.468752l-2.9375 0l2.328125 -4.984375l-4.3125 -10.484377z" fill-rule="nonzero"/><path fill="#000000" fill-opacity="0.0" d="m879.1837 154.47113l34.582703 0l0 24.755905l-34.582703 0z" fill-rule="evenodd"/><path fill="#000000" d="m890.92444 163.20096l3.296875 0l2.21875 3.09375l2.25 -3.09375l3.265625 0l-3.875 5.359375l4.359375 5.96875l-3.296875 0l-2.703125 -3.71875l-2.671875 3.71875l-3.25 0l4.28125 -5.96875l-3.875 -5.359375z" fill-rule="nonzero"/><path fill="#000000" fill-opacity="0.0" d="m661.81104 218.71129l326.14172 0l0 69.511795l-326.14172 0z" fill-rule="evenodd"/><path fill="#000000" d="m688.3819 240.1419q1.140625 0 2.234375 0.59375q1.109375 0.59375 1.71875 1.703125q0.625 1.109375 0.625 2.296875q0 1.90625 -1.34375 3.25q-1.34375 1.34375 -3.234375 1.34375q-1.90625 0 -3.25 -1.34375q-1.34375 -1.34375 -1.34375 -3.25q0 -1.203125 0.609375 -2.296875q0.609375 -1.109375 1.71875 -1.703125q1.109375 -0.59375 2.265625 -0.59375z" fill-rule="nonzero"/><path fill="#000000" d="m719.43604 239.42316l3.0625 0l1.984375 3.21875l2.34375 -3.21875l3.234375 0l-4.109375 5.625l3.5 5.703125l-3.0625 0l-2.109375 -3.421875l-2.546875 3.421875l-3.234375 0l4.3125 -5.828125l-3.375 -5.5z" fill-rule="nonzero"/><path fill="#000000" d="m732.58417 243.78253l5.296875 0l0 2.640625l-5.296875 0l0 -2.640625zm19.65924 -2.078125l-2.359375 1.3125q-0.671875 -0.703125 -1.328125 -0.96875q-0.640625 -0.28125 -1.515625 -0.28125q-1.59375 0 -2.578125 0.953125q-0.984375 0.953125 -0.984375 2.453125q0 1.4375 0.9375 2.359375q0.953125 0.921875 2.5 0.921875q1.90625 0 2.96875 -1.3125l2.234375 1.53125q-1.828125 2.375 -5.140625 2.375q-3.0 0 -4.6875 -1.765625q-1.6875 -1.78125 -1.6875 -4.15625q0 -1.640625 0.8125 -3.03125q0.828125 -1.390625 2.296875 -2.171875q1.484375 -0.796875 3.296875 -0.796875q1.6875 0 3.03125 0.671875q1.34375 0.671875 2.203125 1.90625zm7.887329 -2.578125q1.59375 0 3.0 0.8125q1.421875 0.796875 2.203125 2.171875q0.796875 1.375 0.796875 2.96875q0 1.59375 -0.796875 3.0q-0.796875 1.390625 -2.171875 2.1875q-1.375 0.78125 -3.03125 0.78125q-2.4375 0 -4.15625 -1.734375q-1.71875 -1.734375 -1.71875 -4.21875q0 -2.65625 1.9375 -4.421875q1.71875 -1.546875 3.9375 -1.546875zm0.03125 2.671875q-1.3125 0 -2.203125 0.921875q-0.875 0.921875 -0.875 2.359375q0 1.484375 0.859375 2.40625q0.875 0.90625 2.21875 0.90625q1.328125 0 2.203125 -0.921875q0.890625 -0.921875 0.890625 -2.390625q0 -1.453125 -0.875 -2.359375q-0.859375 -0.921875 -2.21875 -0.921875zm13.621643 -2.671875q1.59375 0 3.0 0.8125q1.421875 0.796875 2.203125 2.171875q0.796875 1.375 0.796875 2.96875q0 1.59375 -0.796875 3.0q-0.796875 1.390625 -2.171875 2.1875q-1.375 0.78125 -3.03125 0.78125q-2.4375 0 -4.15625 -1.734375q-1.71875 -1.734375 -1.71875 -4.21875q0 -2.65625 1.9375 -4.421875q1.71875 -1.546875 3.9375 -1.546875zm0.03125 2.671875q-1.3125 0 -2.203125 0.921875q-0.875 0.921875 -0.875 2.359375q0 1.484375 0.859375 2.40625q0.875 0.90625 2.21875 0.90625q1.328125 0 2.203125 -0.921875q0.890625 -0.921875 0.890625 -2.390625q0 -1.453125 -0.875 -2.359375q-0.859375 -0.921875 -2.21875 -0.921875zm7.621704 -2.375l2.4375 0l0 1.421875q0.40625 -0.84375 1.0625 -1.28125q0.65625 -0.4375 1.4375 -0.4375q0.546875 0 1.15625 0.296875l-0.890625 2.4375q-0.5 -0.25 -0.828125 -0.25q-0.65625 0 -1.109375 0.8125q-0.453125 0.8125 -0.453125 3.1875l0.015625 0.5625l0 4.578125l-2.828125 0l0 -11.328125zm15.868103 -4.375l2.828125 0l0 15.703125l-2.828125 0l0 -1.203125q-0.828125 0.796875 -1.671875 1.15625q-0.84375 0.34375 -1.8125 0.34375q-2.203125 0 -3.8125 -1.703125q-1.59375 -1.703125 -1.59375 -4.234375q0 -2.625 1.546875 -4.296875q1.546875 -1.6875 3.765625 -1.6875q1.03125 0 1.921875 0.390625q0.890625 0.390625 1.65625 1.15625l0 -5.625zm-2.984375 6.703125q-1.328125 0 -2.203125 0.9375q-0.875 0.921875 -0.875 2.390625q0 1.46875 0.890625 2.421875q0.890625 0.9375 2.1875 0.9375q1.34375 0 2.234375 -0.921875q0.890625 -0.9375 0.890625 -2.453125q0 -1.484375 -0.890625 -2.390625q-0.890625 -0.921875 -2.234375 -0.921875z" fill-rule="nonzero"/><path fill="#000000" d="m815.4673 245.68878l0 -7.96875l1.59375 0l0 3.1875l9.453125 0l-1.890625 -2.46875l0.828125 -0.828125l5.765625 3.84375l0 0.5l-5.765625 3.84375l-0.828125 -0.828125l1.890625 -2.46875l-9.453125 0l0 3.1875l-1.59375 0z" fill-rule="nonzero"/><path fill="#000000" d="m845.98 234.75128q0.75 0 1.28125 0.546875q0.546875 0.546875 0.546875 1.3125q0 0.765625 -0.53125 1.296875q-0.53125 0.53125 -1.265625 0.53125q-0.765625 0 -1.3125 -0.546875q-0.53125 -0.546875 -0.53125 -1.328125q0 -0.75 0.53125 -1.28125q0.53125 -0.53125 1.28125 -0.53125zm-1.421875 4.671875l2.859375 0l0 11.328125l-2.859375 0l0 -11.328125zm5.4258423 0l2.828125 0l0 1.15625q0.96875 -0.8125 1.75 -1.125q0.796875 -0.328125 1.625 -0.328125q1.6875 0 2.859375 1.171875q0.984375 1.0 0.984375 2.96875l0 7.484375l-2.8125 0l0 -4.96875q0 -2.03125 -0.1875 -2.6875q-0.171875 -0.671875 -0.625 -1.015625q-0.453125 -0.359375 -1.125 -0.359375q-0.859375 0 -1.484375 0.578125q-0.609375 0.578125 -0.859375 1.59375q-0.125 0.53125 -0.125 2.3125l0 4.546875l-2.828125 0l0 -11.328125zm21.174011 -4.375l2.828125 0l0 15.703125l-2.828125 0l0 -1.203125q-0.828125 0.796875 -1.671875 1.15625q-0.84375 0.34375 -1.8125 0.34375q-2.203125 0 -3.8125 -1.703125q-1.59375 -1.703125 -1.59375 -4.234375q0 -2.625 1.546875 -4.296875q1.546875 -1.6875 3.765625 -1.6875q1.03125 0 1.921875 0.390625q0.890625 0.390625 1.65625 1.15625l0 -5.625zm-2.984375 6.703125q-1.328125 0 -2.203125 0.9375q-0.875 0.921875 -0.875 2.390625q0 1.46875 0.890625 2.421875q0.890625 0.9375 2.1875 0.9375q1.34375 0 2.234375 -0.921875q0.890625 -0.9375 0.890625 -2.453125q0 -1.484375 -0.890625 -2.390625q-0.890625 -0.921875 -2.234375 -0.921875zm20.03302 4.15625l-9.125 0q0.203125 1.203125 1.0625 1.921875q0.859375 0.71875 2.1875 0.71875q1.59375 0 2.734375 -1.125l2.390625 1.125q-0.890625 1.28125 -2.140625 1.890625q-1.25 0.609375 -2.96875 0.609375q-2.65625 0 -4.34375 -1.6875q-1.671875 -1.6875 -1.671875 -4.21875q0 -2.59375 1.671875 -4.296875q1.671875 -1.71875 4.1875 -1.71875q2.6875 0 4.359375 1.71875q1.671875 1.703125 1.671875 4.515625l-0.015625 0.546875zm-2.84375 -2.234375q-0.28125 -0.953125 -1.109375 -1.546875q-0.828125 -0.59375 -1.921875 -0.59375q-1.1875 0 -2.078125 0.671875q-0.5625 0.40625 -1.046875 1.46875l6.15625 0zm7.981018 -4.25l0 1.25q0.765625 -0.765625 1.65625 -1.15625q0.90625 -0.390625 1.921875 -0.390625q2.21875 0 3.765625 1.6875q1.546875 1.671875 1.546875 4.296875q0 2.53125 -1.609375 4.234375q-1.59375 1.703125 -3.78125 1.703125q-0.984375 0 -1.828125 -0.34375q-0.84375 -0.359375 -1.671875 -1.15625l0 5.34375l-2.828125 0l0 -15.46875l2.828125 0zm2.984375 2.328125q-1.34375 0 -2.234375 0.921875q-0.875 0.90625 -0.875 2.390625q0 1.515625 0.875 2.453125q0.890625 0.921875 2.234375 0.921875q1.296875 0 2.1875 -0.9375q0.890625 -0.953125 0.890625 -2.421875q0 -1.46875 -0.875 -2.390625q-0.875 -0.9375 -2.203125 -0.9375zm9.81427 6.03125q0.6875 0 1.15625 0.484375q0.484375 0.46875 0.484375 1.140625q0 0.671875 -0.484375 1.15625q-0.46875 0.484375 -1.15625 0.484375q-0.671875 0 -1.15625 -0.484375q-0.46875 -0.484375 -0.46875 -1.15625q0 -0.671875 0.46875 -1.140625q0.484375 -0.484375 1.15625 -0.484375zm9.169006 -8.359375l2.890625 0l2.875 6.6875l2.84375 -6.6875l2.890625 0l-4.828125 11.328125l-1.84375 0l-4.828125 -11.328125zm21.538757 0l2.828125 0l0 11.328125l-2.828125 0l0 -1.203125q-0.828125 0.796875 -1.671875 1.15625q-0.84375 0.34375 -1.8125 0.34375q-2.203125 0 -3.8125 -1.703125q-1.59375 -1.703125 -1.59375 -4.234375q0 -2.625 1.546875 -4.296875q1.546875 -1.6875 3.765625 -1.6875q1.03125 0 1.921875 0.390625q0.890625 0.390625 1.65625 1.15625l0 -1.25zm-2.984375 2.328125q-1.328125 0 -2.203125 0.9375q-0.875 0.921875 -0.875 2.390625q0 1.46875 0.890625 2.421875q0.890625 0.9375 2.1875 0.9375q1.34375 0 2.234375 -0.921875q0.890625 -0.9375 0.890625 -2.453125q0 -1.484375 -0.890625 -2.390625q-0.890625 -0.921875 -2.234375 -0.921875zm8.017395 -2.328125l2.4375 0l0 1.421875q0.40625 -0.84375 1.0625 -1.28125q0.65625 -0.4375 1.4375 -0.4375q0.546875 0 1.15625 0.296875l-0.890625 2.4375q-0.5 -0.25 -0.828125 -0.25q-0.65625 0 -1.109375 0.8125q-0.453125 0.8125 -0.453125 3.1875l0.015625 0.5625l0 4.578125l-2.828125 0l0 -11.328125zm9.039978 8.359375q0.6875 0 1.15625 0.484375q0.484375 0.46875 0.484375 1.140625q0 0.671875 -0.484375 1.15625q-0.46875 0.484375 -1.15625 0.484375q-0.671875 0 -1.15625 -0.484375q-0.46875 -0.484375 -0.46875 -1.15625q0 -0.671875 0.46875 -1.140625q0.484375 -0.484375 1.15625 -0.484375z" fill-rule="nonzero"/><path fill="#000000" d="m688.3819 268.94193q1.140625 0 2.234375 0.59375q1.109375 0.59375 1.71875 1.703125q0.625 1.109375 0.625 2.296875q0 1.90625 -1.34375 3.25q-1.34375 1.34375 -3.234375 1.34375q-1.90625 0 -3.25 -1.34375q-1.34375 -1.34375 -1.34375 -3.25q0 -1.203125 0.609375 -2.296875q0.609375 -1.109375 1.71875 -1.703125q1.109375 -0.59375 2.265625 -0.59375z" fill-rule="nonzero"/><path fill="#000000" d="m719.2798 268.22318l2.734375 0l2.203125 6.71875l3.875 -6.71875l3.0 0l-8.90625 15.46875l-2.9375 0l3.21875 -5.6875l-3.1875 -9.78125z" fill-rule="nonzero"/><path fill="#000000" d="m733.0111 272.58255l5.296875 0l0 2.640625l-5.296875 0l0 -2.640625zm19.659302 -2.078125l-2.359375 1.3125q-0.671875 -0.703125 -1.328125 -0.96875q-0.640625 -0.28125 -1.515625 -0.28125q-1.59375 0 -2.578125 0.953125q-0.984375 0.953125 -0.984375 2.453125q0 1.4375 0.9375 2.359375q0.953125 0.921875 2.5 0.921875q1.90625 0 2.96875 -1.3125l2.234375 1.53125q-1.828125 2.375 -5.140625 2.375q-3.0 0 -4.6875 -1.765625q-1.6875 -1.78125 -1.6875 -4.15625q0 -1.640625 0.8125 -3.03125q0.828125 -1.390625 2.296875 -2.171875q1.484375 -0.796875 3.296875 -0.796875q1.6875 0 3.03125 0.671875q1.34375 0.671875 2.203125 1.90625zm7.887268 -2.578125q1.59375 0 3.0 0.8125q1.421875 0.796875 2.203125 2.171875q0.796875 1.375 0.796875 2.96875q0 1.59375 -0.796875 3.0q-0.796875 1.390625 -2.171875 2.1875q-1.375 0.78125 -3.03125 0.78125q-2.4375 0 -4.15625 -1.734375q-1.71875 -1.734375 -1.71875 -4.21875q0 -2.65625 1.9375 -4.421875q1.71875 -1.546875 3.9375 -1.546875zm0.03125 2.671875q-1.3125 0 -2.203125 0.921875q-0.875 0.921875 -0.875 2.359375q0 1.484375 0.859375 2.40625q0.875 0.90625 2.21875 0.90625q1.328125 0 2.203125 -0.921875q0.890625 -0.921875 0.890625 -2.390625q0 -1.453125 -0.875 -2.359375q-0.859375 -0.921875 -2.21875 -0.921875zm13.621704 -2.671875q1.59375 0 3.0 0.8125q1.421875 0.796875 2.203125 2.171875q0.796875 1.375 0.796875 2.96875q0 1.59375 -0.796875 3.0q-0.796875 1.390625 -2.171875 2.1875q-1.375 0.78125 -3.03125 0.78125q-2.4375 0 -4.15625 -1.734375q-1.71875 -1.734375 -1.71875 -4.21875q0 -2.65625 1.9375 -4.421875q1.71875 -1.546875 3.9375 -1.546875zm0.03125 2.671875q-1.3125 0 -2.203125 0.921875q-0.875 0.921875 -0.875 2.359375q0 1.484375 0.859375 2.40625q0.875 0.90625 2.21875 0.90625q1.328125 0 2.203125 -0.921875q0.890625 -0.921875 0.890625 -2.390625q0 -1.453125 -0.875 -2.359375q-0.859375 -0.921875 -2.21875 -0.921875zm7.621643 -2.375l2.4375 0l0 1.421875q0.40625 -0.84375 1.0625 -1.28125q0.65625 -0.4375 1.4375 -0.4375q0.546875 0 1.15625 0.296875l-0.890625 2.4375q-0.5 -0.25 -0.828125 -0.25q-0.65625 0 -1.109375 0.8125q-0.453125 0.8125 -0.453125 3.1875l0.015625 0.5625l0 4.578125l-2.828125 0l0 -11.328125zm15.868164 -4.375l2.828125 0l0 15.703125l-2.828125 0l0 -1.203125q-0.828125 0.796875 -1.671875 1.15625q-0.84375 0.34375 -1.8125 0.34375q-2.203125 0 -3.8125 -1.703125q-1.59375 -1.703125 -1.59375 -4.234375q0 -2.625 1.546875 -4.296875q1.546875 -1.6875 3.765625 -1.6875q1.03125 0 1.921875 0.390625q0.890625 0.390625 1.65625 1.15625l0 -5.625zm-2.984375 6.703125q-1.328125 0 -2.203125 0.9375q-0.875 0.921875 -0.875 2.390625q0 1.46875 0.890625 2.421875q0.890625 0.9375 2.1875 0.9375q1.34375 0 2.234375 -0.921875q0.890625 -0.9375 0.890625 -2.453125q0 -1.484375 -0.890625 -2.390625q-0.890625 -0.921875 -2.234375 -0.921875z" fill-rule="nonzero"/><path fill="#000000" d="m815.4673 274.4888l0 -7.96875l1.59375 0l0 3.1875l9.453125 0l-1.890625 -2.46875l0.828125 -0.828125l5.765625 3.84375l0 0.5l-5.765625 3.84375l-0.828125 -0.828125l1.890625 -2.46875l-9.453125 0l0 3.1875l-1.59375 0z" fill-rule="nonzero"/><path fill="#000000" d="m853.2456 263.84818l2.828125 0l0 15.703125l-2.828125 0l0 -1.203125q-0.828125 0.796875 -1.671875 1.15625q-0.84375 0.34375 -1.8125 0.34375q-2.203125 0 -3.8125 -1.703125q-1.59375 -1.703125 -1.59375 -4.234375q0 -2.625 1.546875 -4.296875q1.546875 -1.6875 3.765625 -1.6875q1.03125 0 1.921875 0.390625q0.890625 0.390625 1.65625 1.15625l0 -5.625zm-2.984375 6.703125q-1.328125 0 -2.203125 0.9375q-0.875 0.921875 -0.875 2.390625q0 1.46875 0.890625 2.421875q0.890625 0.9375 2.1875 0.9375q1.34375 0 2.234375 -0.921875q0.890625 -0.9375 0.890625 -2.453125q0 -1.484375 -0.890625 -2.390625q-0.890625 -0.921875 -2.234375 -0.921875zm20.03302 4.15625l-9.125 0q0.203125 1.203125 1.0625 1.921875q0.859375 0.71875 2.1875 0.71875q1.59375 0 2.734375 -1.125l2.390625 1.125q-0.890625 1.28125 -2.140625 1.890625q-1.25 0.609375 -2.96875 0.609375q-2.65625 0 -4.34375 -1.6875q-1.671875 -1.6875 -1.671875 -4.21875q0 -2.59375 1.671875 -4.296875q1.671875 -1.71875 4.1875 -1.71875q2.6875 0 4.359375 1.71875q1.671875 1.703125 1.671875 4.515625l-0.015625 0.546875zm-2.84375 -2.234375q-0.28125 -0.953125 -1.109375 -1.546875q-0.828125 -0.59375 -1.921875 -0.59375q-1.1875 0 -2.078125 0.671875q-0.5625 0.40625 -1.046875 1.46875l6.15625 0zm7.981079 -4.25l0 1.25q0.765625 -0.765625 1.65625 -1.15625q0.90625 -0.390625 1.921875 -0.390625q2.21875 0 3.765625 1.6875q1.546875 1.671875 1.546875 4.296875q0 2.53125 -1.609375 4.234375q-1.59375 1.703125 -3.78125 1.703125q-0.984375 0 -1.828125 -0.34375q-0.84375 -0.359375 -1.671875 -1.15625l0 5.34375l-2.828125 0l0 -15.46875l2.828125 0zm2.984375 2.328125q-1.34375 0 -2.234375 0.921875q-0.875 0.90625 -0.875 2.390625q0 1.515625 0.875 2.453125q0.890625 0.921875 2.234375 0.921875q1.296875 0 2.1875 -0.9375q0.890625 -0.953125 0.890625 -2.421875q0 -1.46875 -0.875 -2.390625q-0.875 -0.9375 -2.203125 -0.9375zm9.81427 6.03125q0.6875 0 1.15625 0.484375q0.484375 0.46875 0.484375 1.140625q0 0.671875 -0.484375 1.15625q-0.46875 0.484375 -1.15625 0.484375q-0.671875 0 -1.15625 -0.484375q-0.46875 -0.484375 -0.46875 -1.15625q0 -0.671875 0.46875 -1.140625q0.484375 -0.484375 1.15625 -0.484375zm9.168945 -8.359375l2.890625 0l2.875 6.6875l2.84375 -6.6875l2.890625 0l-4.828125 11.328125l-1.84375 0l-4.828125 -11.328125zm21.538757 0l2.828125 0l0 11.328125l-2.828125 0l0 -1.203125q-0.828125 0.796875 -1.671875 1.15625q-0.84375 0.34375 -1.8125 0.34375q-2.203125 0 -3.8125 -1.703125q-1.59375 -1.703125 -1.59375 -4.234375q0 -2.625 1.546875 -4.296875q1.546875 -1.6875 3.765625 -1.6875q1.03125 0 1.921875 0.390625q0.890625 0.390625 1.65625 1.15625l0 -1.25zm-2.984375 2.328125q-1.328125 0 -2.203125 0.9375q-0.875 0.921875 -0.875 2.390625q0 1.46875 0.890625 2.421875q0.890625 0.9375 2.1875 0.9375q1.34375 0 2.234375 -0.921875q0.890625 -0.9375 0.890625 -2.453125q0 -1.484375 -0.890625 -2.390625q-0.890625 -0.921875 -2.234375 -0.921875zm8.017395 -2.328125l2.4375 0l0 1.421875q0.40625 -0.84375 1.0625 -1.28125q0.65625 -0.4375 1.4375 -0.4375q0.546875 0 1.15625 0.296875l-0.890625 2.4375q-0.5 -0.25 -0.828125 -0.25q-0.65625 0 -1.109375 0.8125q-0.453125 0.8125 -0.453125 3.1875l0.015625 0.5625l0 4.578125l-2.828125 0l0 -11.328125zm9.040039 8.359375q0.6875 0 1.15625 0.484375q0.484375 0.46875 0.484375 1.140625q0 0.671875 -0.484375 1.15625q-0.46875 0.484375 -1.15625 0.484375q-0.671875 0 -1.15625 -0.484375q-0.46875 -0.484375 -0.46875 -1.15625q0 -0.671875 0.46875 -1.140625q0.484375 -0.484375 1.15625 -0.484375z" fill-rule="nonzero"/><path fill="#000000" fill-opacity="0.0" d="m833.0735 239.15504l0 0c0 -5.2214355 4.232849 -9.454254 9.454285 -9.454254l107.89459 0c2.5074463 0 4.9121704 0.99606323 6.6851807 2.7690887c1.7730103 1.7730103 2.769104 4.1777344 2.769104 6.6851654l0 37.815903c0 5.2214355 -4.232849 9.454254 -9.454285 9.454254l-107.89459 0c-5.2214355 0 -9.454285 -4.2328186 -9.454285 -9.454254z" fill-rule="evenodd"/><path stroke="#669900" stroke-width="3.0" stroke-linejoin="round" stroke-linecap="butt" d="m833.0735 239.15504l0 0c0 -5.2214355 4.232849 -9.454254 9.454285 -9.454254l107.89459 0c2.5074463 0 4.9121704 0.99606323 6.6851807 2.7690887c1.7730103 1.7730103 2.769104 4.1777344 2.769104 6.6851654l0 37.815903c0 5.2214355 -4.232849 9.454254 -9.454285 9.454254l-107.89459 0c-5.2214355 0 -9.454285 -4.2328186 -9.454285 -9.454254z" fill-rule="evenodd"/><path fill="#000000" fill-opacity="0.0" d="m636.0971 186.74803l368.37793 0l0 24.755905l-368.37793 0z" fill-rule="evenodd"/><path fill="#000000" d="m659.2314 192.87535l-2.421875 2.140625q-1.28125 -1.78125 -2.59375 -1.78125q-0.65625 0 -1.0625 0.34375q-0.40625 0.34375 -0.40625 0.78125q0 0.4375 0.296875 0.8125q0.390625 0.515625 2.390625 2.21875q1.875 1.578125 2.28125 1.984375q1.0 1.0 1.40625 1.921875q0.421875 0.921875 0.421875 2.015625q0 2.125 -1.46875 3.515625q-1.46875 1.375 -3.8125 1.375q-1.84375 0 -3.21875 -0.90625q-1.359375 -0.90625 -2.328125 -2.84375l2.75 -1.65625q1.25 2.28125 2.859375 2.28125q0.84375 0 1.421875 -0.484375q0.578125 -0.5 0.578125 -1.140625q0 -0.59375 -0.4375 -1.171875q-0.4375 -0.59375 -1.90625 -1.796875q-2.8125 -2.296875 -3.640625 -3.546875q-0.8125 -1.25 -0.8125 -2.484375q0 -1.796875 1.359375 -3.078125q1.359375 -1.28125 3.375 -1.28125q1.28125 0 2.4375 0.59375q1.171875 0.59375 2.53125 2.1875zm3.4335938 -2.34375l3.484375 0q2.828125 0 4.078125 0.515625q1.25 0.515625 1.96875 1.6875q0.71875 1.171875 0.71875 2.796875q0 1.796875 -0.953125 3.0q-0.9375 1.1875 -2.546875 1.65625q-0.953125 0.28125 -3.46875 0.28125l0 7.296875l-3.28125 0l0 -17.234375zm3.28125 6.734375l1.046875 0q1.234375 0 1.703125 -0.171875q0.484375 -0.1875 0.765625 -0.578125q0.28125 -0.40625 0.28125 -0.984375q0 -1.0 -0.78125 -1.453125q-0.5625 -0.34375 -2.078125 -0.34375l-0.9375 0l0 3.53125zm10.191406 -6.734375l9.40625 0l0 3.203125l-6.15625 0l0 3.125l6.15625 0l0 3.140625l-6.15625 0l0 4.546875l6.15625 0l0 3.21875l-9.40625 0l0 -17.234375zm28.308594 3.03125l-2.296875 2.1875q-2.34375 -2.46875 -5.265625 -2.46875q-2.484375 0 -4.171875 1.6875q-1.6875 1.6875 -1.6875 4.15625q0 1.71875 0.75 3.0625q0.75 1.328125 2.109375 2.09375q1.375 0.765625 3.046875 0.765625q1.4375 0 2.609375 -0.53125q1.1875 -0.53125 2.609375 -1.9375l2.234375 2.3125q-1.921875 1.859375 -3.625 2.59375q-1.6875 0.71875 -3.875 0.71875q-4.015625 0 -6.578125 -2.546875q-2.5625 -2.5625 -2.5625 -6.546875q0 -2.578125 1.171875 -4.578125q1.171875 -2.0 3.34375 -3.21875q2.171875 -1.21875 4.671875 -1.21875q2.140625 0 4.109375 0.90625q1.984375 0.890625 3.40625 2.5625zm2.6367188 -3.03125l3.265625 0l0 17.234375l-3.265625 0l0 -17.234375zm6.9960938 0l8.5625 0l0 3.1875l-5.3125 0l0 3.140625l5.3125 0l0 3.140625l-5.3125 0l0 7.765625l-3.25 0l0 -17.234375zm10.238281 0l3.53125 0l3.21875 6.1875l3.1875 -6.1875l3.46875 0l-5.03125 9.765625l0 7.46875l-3.3125 0l0 -7.46875l-5.0625 -9.765625zm28.082031 0l3.328125 0l6.640625 17.234375l-3.421875 0l-1.34375 -3.546875l-7.03125 0l-1.40625 3.546875l-3.40625 0l6.640625 -17.234375zm1.6875 4.5625l-2.296875 5.921875l4.578125 0l-2.28125 -5.921875zm10.832031 -4.5625l9.40625 0l0 3.203125l-6.15625 0l0 3.125l6.15625 0l0 3.140625l-6.15625 0l0 4.546875l6.15625 0l0 3.21875l-9.40625 0l0 -17.234375zm21.496094 2.34375l-2.421875 2.140625q-1.28125 -1.78125 -2.59375 -1.78125q-0.65625 0 -1.0625 0.34375q-0.40625 0.34375 -0.40625 0.78125q0 0.4375 0.296875 0.8125q0.390625 0.515625 2.390625 2.21875q1.875 1.578125 2.28125 1.984375q1.0 1.0 1.40625 1.921875q0.421875 0.921875 0.421875 2.015625q0 2.125 -1.46875 3.515625q-1.46875 1.375 -3.8125 1.375q-1.84375 0 -3.21875 -0.90625q-1.359375 -0.90625 -2.328125 -2.84375l2.75 -1.65625q1.25 2.28125 2.859375 2.28125q0.84375 0 1.421875 -0.484375q0.578125 -0.5 0.578125 -1.140625q0 -0.59375 -0.4375 -1.171875q-0.4375 -0.59375 -1.90625 -1.796875q-2.8125 -2.296875 -3.640625 -3.546875q-0.8125 -1.25 -0.8125 -2.484375q0 -1.796875 1.359375 -3.078125q1.359375 -1.28125 3.375 -1.28125q1.28125 0 2.4375 0.59375q1.171875 0.59375 2.53125 2.1875zm1.7460938 -2.34375l9.53125 0l0 3.234375l-3.140625 0l0 14.0l-3.328125 0l0 -14.0l-3.0625 0l0 -3.234375zm11.765625 0l3.328125 0l0 6.5l5.765625 0l0 -6.5l3.328125 0l0 17.234375l-3.328125 0l0 -7.5625l-5.765625 0l0 7.5625l-3.328125 0l0 -17.234375zm16.355469 0l9.40625 0l0 3.203125l-6.15625 0l0 3.125l6.15625 0l0 3.140625l-6.15625 0l0 4.546875l6.15625 0l0 3.21875l-9.40625 0l0 -17.234375zm10.761719 0l9.53125 0l0 3.234375l-3.140625 0l0 14.0l-3.328125 0l0 -14.0l-3.0625 0l0 -3.234375zm11.546875 0l3.265625 0l0 17.234375l-3.265625 0l0 -17.234375zm22.792969 3.03125l-2.296875 2.1875q-2.34375 -2.46875 -5.265625 -2.46875q-2.484375 0 -4.171875 1.6875q-1.6875 1.6875 -1.6875 4.15625q0 1.71875 0.75 3.0625q0.75 1.328125 2.109375 2.09375q1.375 0.765625 3.046875 0.765625q1.4375 0 2.609375 -0.53125q1.1875 -0.53125 2.609375 -1.9375l2.234375 2.3125q-1.921875 1.859375 -3.625 2.59375q-1.6875 0.71875 -3.875 0.71875q-4.015625 0 -6.578125 -2.546875q-2.5625 -2.5625 -2.5625 -6.546875q0 -2.578125 1.171875 -4.578125q1.171875 -2.0 3.34375 -3.21875q2.171875 -1.21875 4.671875 -1.21875q2.140625 0 4.109375 0.90625q1.984375 0.890625 3.40625 2.5625zm11.2578125 -3.03125l3.203125 0l3.984375 12.015625l4.046875 -12.015625l3.15625 0l2.90625 17.234375l-3.15625 0l-1.859375 -10.890625l-3.65625 10.890625l-2.90625 0l-3.609375 -10.890625l-1.890625 10.890625l-3.203125 0l2.984375 -17.234375zm25.175781 0l3.328125 0l6.640625 17.234375l-3.421875 0l-1.34375 -3.546875l-7.03125 0l-1.40625 3.546875l-3.40625 0l6.640625 -17.234375zm1.6875 4.5625l-2.296875 5.921875l4.578125 0l-2.28125 -5.921875zm10.800781 -4.5625l3.484375 0q2.828125 0 4.078125 0.515625q1.25 0.515625 1.96875 1.6875q0.71875 1.171875 0.71875 2.796875q0 1.796875 -0.953125 3.0q-0.9375 1.1875 -2.546875 1.65625q-0.953125 0.28125 -3.46875 0.28125l0 7.296875l-3.28125 0l0 -17.234375zm3.28125 6.734375l1.046875 0q1.234375 0 1.703125 -0.171875q0.484375 -0.1875 0.765625 -0.578125q0.28125 -0.40625 0.28125 -0.984375q0 -1.0 -0.78125 -1.453125q-0.5625 -0.34375 -2.078125 -0.34375l-0.9375 0l0 3.53125zm10.160156 -6.734375l3.484375 0q2.828125 0 4.078125 0.515625q1.25 0.515625 1.96875 1.6875q0.71875 1.171875 0.71875 2.796875q0 1.796875 -0.953125 3.0q-0.9375 1.1875 -2.546875 1.65625q-0.953125 0.28125 -3.46875 0.28125l0 7.296875l-3.28125 0l0 -17.234375zm3.28125 6.734375l1.046875 0q1.234375 0 1.703125 -0.171875q0.484375 -0.1875 0.765625 -0.578125q0.28125 -0.40625 0.28125 -0.984375q0 -1.0 -0.78125 -1.453125q-0.5625 -0.34375 -2.078125 -0.34375l-0.9375 0l0 3.53125zm9.941406 -6.734375l3.265625 0l0 17.234375l-3.265625 0l0 -17.234375zm6.9648438 0l3.140625 0l7.390625 11.34375l0 -11.34375l3.28125 0l0 17.234375l-3.15625 0l-7.375 -11.3125l0 11.3125l-3.28125 0l0 -17.234375zm33.660156 2.8125l-2.3125 2.28125q-2.1875 -2.328125 -5.109375 -2.328125q-2.546875 0 -4.265625 1.6875q-1.71875 1.6875 -1.71875 4.109375q0 2.5 1.78125 4.234375q1.78125 1.734375 4.40625 1.734375q1.6875 0 2.859375 -0.71875q1.171875 -0.71875 1.875 -2.234375l-4.984375 0l0 -3.09375l8.671875 0l0.015625 0.734375q0 2.265625 -1.171875 4.296875q-1.171875 2.015625 -3.03125 3.09375q-1.859375 1.0625 -4.375 1.0625q-2.671875 0 -4.78125 -1.171875q-2.109375 -1.171875 -3.328125 -3.328125q-1.21875 -2.15625 -1.21875 -4.640625q0 -3.421875 2.25 -5.953125q2.6875 -3.015625 6.984375 -3.015625q2.25 0 4.21875 0.828125q1.640625 0.703125 3.234375 2.421875zm13.265625 -0.46875l-2.421875 2.140625q-1.28125 -1.78125 -2.59375 -1.78125q-0.65625 0 -1.0625 0.34375q-0.40625 0.34375 -0.40625 0.78125q0 0.4375 0.296875 0.8125q0.390625 0.515625 2.390625 2.21875q1.875 1.578125 2.28125 1.984375q1.0 1.0 1.40625 1.921875q0.421875 0.921875 0.421875 2.015625q0 2.125 -1.46875 3.515625q-1.46875 1.375 -3.8125 1.375q-1.84375 0 -3.21875 -0.90625q-1.359375 -0.90625 -2.328125 -2.84375l2.75 -1.65625q1.25 2.28125 2.859375 2.28125q0.84375 0 1.421875 -0.484375q0.578125 -0.5 0.578125 -1.140625q0 -0.59375 -0.4375 -1.171875q-0.4375 -0.59375 -1.90625 -1.796875q-2.8125 -2.296875 -3.640625 -3.546875q-0.8125 -1.25 -0.8125 -2.484375q0 -1.796875 1.359375 -3.078125q1.359375 -1.28125 3.375 -1.28125q1.28125 0 2.4375 0.59375q1.171875 0.59375 2.53125 2.1875z" fill-rule="nonzero"/><path fill="#000000" fill-opacity="0.0" d="m712.68506 239.16817l0 0c0 -5.2214355 4.232788 -9.454254 9.454224 -9.454254l79.20172 0c2.5074463 0 4.9121704 0.99606323 6.6851807 2.7690887c1.7730103 1.7730103 2.769104 4.1777344 2.769104 6.6851654l0 37.815903c0 5.2214355 -4.232849 9.454254 -9.454285 9.454254l-79.20172 0c-5.2214355 0 -9.454224 -4.2328186 -9.454224 -9.454254z" fill-rule="evenodd"/><path stroke="#ffab40" stroke-width="3.0" stroke-linejoin="round" stroke-linecap="butt" d="m712.68506 239.16817l0 0c0 -5.2214355 4.232788 -9.454254 9.454224 -9.454254l79.20172 0c2.5074463 0 4.9121704 0.99606323 6.6851807 2.7690887c1.7730103 1.7730103 2.769104 4.1777344 2.769104 6.6851654l0 37.815903c0 5.2214355 -4.232849 9.454254 -9.454285 9.454254l-79.20172 0c-5.2214355 0 -9.454224 -4.2328186 -9.454224 -9.454254z" fill-rule="evenodd"/><path fill="#000000" fill-opacity="0.0" d="m696.6903 291.2651l126.8031 0l0 24.75589l-126.8031 0z" fill-rule="evenodd"/><path fill="#ffab40" d="m719.2519 296.9568l2.59375 0l5.15625 13.40625l-2.65625 0l-1.046875 -2.765625l-5.46875 0l-1.09375 2.765625l-2.640625 0l5.15625 -13.40625zm1.3125 3.5625l-1.78125 4.59375l3.5625 0l-1.78125 -4.59375zm18.066528 5.609375l-7.984375 0q0.171875 1.0625 0.921875 1.6875q0.75 0.609375 1.921875 0.609375q1.390625 0 2.390625 -0.96875l2.09375 0.984375q-0.78125 1.109375 -1.875 1.640625q-1.09375 0.53125 -2.59375 0.53125q-2.34375 0 -3.8125 -1.46875q-1.453125 -1.46875 -1.453125 -3.6875q0 -2.265625 1.453125 -3.765625q1.46875 -1.5 3.671875 -1.5q2.34375 0 3.8125 1.5q1.46875 1.5 1.46875 3.96875l-0.015625 0.46875zm-2.5 -1.953125q-0.25 -0.828125 -0.96875 -1.34375q-0.71875 -0.53125 -1.671875 -0.53125q-1.046875 0 -1.828125 0.578125q-0.5 0.375 -0.90625 1.296875l5.375 0zm10.583191 -2.34375l-1.546875 1.546875q-0.9375 -0.9375 -1.703125 -0.9375q-0.421875 0 -0.65625 0.1875q-0.234375 0.171875 -0.234375 0.4375q0 0.203125 0.140625 0.375q0.15625 0.15625 0.75 0.453125l0.90625 0.453125q1.453125 0.71875 1.984375 1.453125q0.53125 0.734375 0.53125 1.734375q0 1.3125 -0.96875 2.203125q-0.96875 0.875 -2.59375 0.875q-2.171875 0 -3.46875 -1.6875l1.53125 -1.671875q0.4375 0.515625 1.015625 0.828125q0.59375 0.3125 1.0625 0.3125q0.484375 0 0.78125 -0.234375q0.3125 -0.234375 0.3125 -0.546875q0 -0.578125 -1.09375 -1.125l-0.828125 -0.421875q-2.40625 -1.203125 -2.40625 -3.03125q0 -1.171875 0.90625 -2.0q0.90625 -0.84375 2.3125 -0.84375q0.96875 0 1.8125 0.4375q0.859375 0.421875 1.453125 1.203125zm2.4420166 -5.03125l2.46875 0l0 3.65625l1.484375 0l0 2.140625l-1.484375 0l0 7.765625l-2.46875 0l0 -7.765625l-1.28125 0l0 -2.140625l1.28125 0l0 -3.65625zm5.2963867 -0.171875l2.46875 0l0 4.828125q0.734375 -0.625 1.46875 -0.9375q0.734375 -0.328125 1.5 -0.328125q1.46875 0 2.484375 1.03125q0.859375 0.875 0.859375 2.59375l0 6.546875l-2.453125 0l0 -4.34375q0 -1.71875 -0.171875 -2.328125q-0.15625 -0.609375 -0.546875 -0.90625q-0.390625 -0.3125 -0.984375 -0.3125q-0.75 0 -1.296875 0.5q-0.546875 0.5 -0.75 1.375q-0.109375 0.4375 -0.109375 2.03125l0 3.984375l-2.46875 0l0 -13.734375zm21.117432 9.5l-7.984375 0q0.171875 1.0625 0.921875 1.6875q0.75 0.609375 1.921875 0.609375q1.390625 0 2.390625 -0.96875l2.09375 0.984375q-0.78125 1.109375 -1.875 1.640625q-1.09375 0.53125 -2.59375 0.53125q-2.34375 0 -3.8125 -1.46875q-1.453125 -1.46875 -1.453125 -3.6875q0 -2.265625 1.453125 -3.765625q1.46875 -1.5 3.671875 -1.5q2.34375 0 3.8125 1.5q1.46875 1.5 1.46875 3.96875l-0.015625 0.46875zm-2.5 -1.953125q-0.25 -0.828125 -0.96875 -1.34375q-0.71875 -0.53125 -1.671875 -0.53125q-1.046875 0 -1.828125 0.578125q-0.5 0.375 -0.90625 1.296875l5.375 0zm4.817566 -7.375l2.46875 0l0 3.65625l1.484375 0l0 2.140625l-1.484375 0l0 7.765625l-2.46875 0l0 -7.765625l-1.28125 0l0 -2.140625l1.28125 0l0 -3.65625zm6.2650757 -0.4375q0.65625 0 1.125 0.484375q0.46875 0.46875 0.46875 1.140625q0 0.671875 -0.46875 1.140625q-0.46875 0.46875 -1.109375 0.46875q-0.671875 0 -1.140625 -0.46875q-0.46875 -0.484375 -0.46875 -1.171875q0 -0.65625 0.46875 -1.125q0.46875 -0.46875 1.125 -0.46875zm-1.25 4.09375l2.5 0l0 9.90625l-2.5 0l0 -9.90625zm14.441528 2.0l-2.0625 1.140625q-0.578125 -0.609375 -1.15625 -0.84375q-0.5625 -0.25 -1.328125 -0.25q-1.390625 0 -2.265625 0.84375q-0.859375 0.828125 -0.859375 2.140625q0 1.265625 0.828125 2.0625q0.84375 0.796875 2.1875 0.796875q1.671875 0 2.59375 -1.140625l1.953125 1.34375q-1.59375 2.0625 -4.5 2.0625q-2.609375 0 -4.09375 -1.546875q-1.46875 -1.546875 -1.46875 -3.625q0 -1.4375 0.71875 -2.640625q0.71875 -1.21875 2.0 -1.90625q1.296875 -0.703125 2.890625 -0.703125q1.46875 0 2.640625 0.59375q1.1875 0.59375 1.921875 1.671875zm8.317566 -0.625l-1.546875 1.546875q-0.9375 -0.9375 -1.703125 -0.9375q-0.421875 0 -0.65625 0.1875q-0.234375 0.171875 -0.234375 0.4375q0 0.203125 0.140625 0.375q0.15625 0.15625 0.75 0.453125l0.90625 0.453125q1.453125 0.71875 1.984375 1.453125q0.53125 0.734375 0.53125 1.734375q0 1.3125 -0.96875 2.203125q-0.96875 0.875 -2.59375 0.875q-2.171875 0 -3.46875 -1.6875l1.53125 -1.671875q0.4375 0.515625 1.015625 0.828125q0.59375 0.3125 1.0625 0.3125q0.484375 0 0.78125 -0.234375q0.3125 -0.234375 0.3125 -0.546875q0 -0.578125 -1.09375 -1.125l-0.828125 -0.421875q-2.40625 -1.203125 -2.40625 -3.03125q0 -1.171875 0.90625 -2.0q0.90625 -0.84375 2.3125 -0.84375q0.96875 0 1.8125 0.4375q0.859375 0.421875 1.453125 1.203125z" fill-rule="nonzero"/><path fill="#000000" fill-opacity="0.0" d="m826.55383 291.2651l126.8031 0l0 24.75589l-126.8031 0z" fill-rule="evenodd"/><path fill="#669900" d="m845.064 296.9568l6.65625 0l0 2.5l-4.125 0l0 2.421875l4.125 0l0 2.453125l-4.125 0l0 6.03125l-2.53125 0l0 -13.40625zm8.063965 3.5l2.140625 0l0 1.25q0.34375 -0.75 0.90625 -1.125q0.578125 -0.390625 1.265625 -0.390625q0.484375 0 1.015625 0.265625l-0.78125 2.140625q-0.4375 -0.21875 -0.71875 -0.21875q-0.578125 0 -0.96875 0.71875q-0.390625 0.703125 -0.390625 2.78125l0 0.46875l0 4.015625l-2.46875 0l0 -9.90625zm11.201111 -0.265625q1.40625 0 2.640625 0.703125q1.234375 0.703125 1.921875 1.90625q0.703125 1.203125 0.703125 2.59375q0 1.40625 -0.703125 2.625q-0.6875 1.21875 -1.890625 1.90625q-1.203125 0.6875 -2.65625 0.6875q-2.125 0 -3.640625 -1.515625q-1.5 -1.515625 -1.5 -3.6875q0 -2.3125 1.703125 -3.859375q1.484375 -1.359375 3.421875 -1.359375zm0.046875 2.34375q-1.15625 0 -1.9375 0.8125q-0.765625 0.796875 -0.765625 2.0625q0 1.296875 0.75 2.09375q0.765625 0.796875 1.9375 0.796875q1.171875 0 1.9375 -0.8125q0.78125 -0.8125 0.78125 -2.078125q0 -1.28125 -0.765625 -2.078125q-0.765625 -0.796875 -1.9375 -0.796875zm7.223816 -2.078125l2.5 0l0 1.140625q0.640625 -0.703125 1.421875 -1.046875q0.78125 -0.359375 1.6875 -0.359375q0.9375 0 1.6875 0.46875q0.75 0.453125 1.203125 1.328125q0.59375 -0.875 1.453125 -1.328125q0.859375 -0.46875 1.875 -0.46875q1.0625 0 1.859375 0.5q0.796875 0.484375 1.140625 1.28125q0.359375 0.796875 0.359375 2.578125l0 5.8125l-2.5 0l0 -5.03125q0 -1.6875 -0.421875 -2.28125q-0.421875 -0.59375 -1.25 -0.59375q-0.640625 0 -1.15625 0.375q-0.5 0.359375 -0.75 1.0q-0.234375 0.640625 -0.234375 2.0625l0 4.46875l-2.515625 0l0 -4.796875q0 -1.328125 -0.203125 -1.921875q-0.1875 -0.609375 -0.578125 -0.890625q-0.390625 -0.296875 -0.953125 -0.296875q-0.609375 0 -1.125 0.375q-0.5 0.359375 -0.75 1.03125q-0.25 0.65625 -0.25 2.09375l0 4.40625l-2.5 0l0 -9.90625zm23.067993 -3.5l3.015625 0q2.921875 0 4.34375 0.734375q1.421875 0.71875 2.34375 2.359375q0.921875 1.625 0.921875 3.796875q0 1.546875 -0.515625 2.84375q-0.515625 1.296875 -1.421875 2.15625q-0.90625 0.859375 -1.96875 1.1875q-1.046875 0.328125 -3.65625 0.328125l-3.0625 0l0 -13.40625zm2.53125 2.46875l0 8.4375l1.1875 0q1.75 0 2.53125 -0.390625q0.796875 -0.40625 1.296875 -1.34375q0.5 -0.953125 0.5 -2.34375q0 -2.125 -1.1875 -3.3125q-1.078125 -1.046875 -3.453125 -1.046875l-0.875 0zm17.56305 1.03125l2.484375 0l0 9.90625l-2.484375 0l0 -1.046875q-0.71875 0.6875 -1.453125 1.0q-0.734375 0.296875 -1.59375 0.296875q-1.921875 0 -3.328125 -1.484375q-1.40625 -1.484375 -1.40625 -3.703125q0 -2.296875 1.359375 -3.765625q1.359375 -1.46875 3.296875 -1.46875q0.890625 0 1.671875 0.34375q0.796875 0.34375 1.453125 1.015625l0 -1.09375zm-2.609375 2.03125q-1.15625 0 -1.921875 0.828125q-0.765625 0.8125 -0.765625 2.078125q0 1.28125 0.78125 2.125q0.78125 0.828125 1.90625 0.828125q1.1875 0 1.953125 -0.8125q0.78125 -0.828125 0.78125 -2.140625q0 -1.296875 -0.78125 -2.09375q-0.765625 -0.8125 -1.953125 -0.8125zm7.90979 -5.6875l2.46875 0l0 3.65625l1.484375 0l0 2.140625l-1.484375 0l0 7.765625l-2.46875 0l0 -7.765625l-1.28125 0l0 -2.140625l1.28125 0l0 -3.65625zm12.608826 3.65625l2.484375 0l0 9.90625l-2.484375 0l0 -1.046875q-0.71875 0.6875 -1.453125 1.0q-0.734375 0.296875 -1.59375 0.296875q-1.921875 0 -3.328125 -1.484375q-1.40625 -1.484375 -1.40625 -3.703125q0 -2.296875 1.359375 -3.765625q1.359375 -1.46875 3.296875 -1.46875q0.890625 0 1.671875 0.34375q0.796875 0.34375 1.453125 1.015625l0 -1.09375zm-2.609375 2.03125q-1.15625 0 -1.921875 0.828125q-0.765625 0.8125 -0.765625 2.078125q0 1.28125 0.78125 2.125q0.78125 0.828125 1.90625 0.828125q1.1875 0 1.953125 -0.8125q0.78125 -0.828125 0.78125 -2.140625q0 -1.296875 -0.78125 -2.09375q-0.765625 -0.8125 -1.953125 -0.8125z" fill-rule="nonzero"/><path fill="#0000ff" d="m375.70883 348.96484l0 0c0 -3.3572083 2.7215576 -6.078766 6.078766 -6.078766l0 0c1.6121826 0 3.1583252 0.6404419 4.2983093 1.780426c1.1399841 1.1399841 1.780426 2.6861572 1.780426 4.29834l0 0c0 3.3571777 -2.7215576 6.0787354 -6.0787354 6.0787354l0 0c-3.3572083 0 -6.078766 -2.7215576 -6.078766 -6.0787354z" fill-rule="evenodd"/><path fill="#0000ff" d="m844.3293 84.330574l0 0c0 -3.3572006 2.7215576 -6.078743 6.0787354 -6.078743l0 0c1.6121826 0 3.1583252 0.64043427 4.29834 1.7804184c1.1399536 1.1399918 1.7803955 2.686142 1.7803955 4.2983246l0 0c0 3.357193 -2.7215576 6.0787354 -6.0787354 6.0787354l0 0c-3.3571777 0 -6.0787354 -2.7215424 -6.0787354 -6.0787354z" fill-rule="evenodd"/><path fill="#0000ff" d="m810.79645 96.48805l0 0c0 -3.357193 2.7215576 -6.078743 6.0787964 -6.078743l0 0c1.6121216 0 3.1583252 0.6404419 4.298279 1.780426c1.1400146 1.1399841 1.7804565 2.6861343 1.7804565 4.298317l0 0c0 3.357193 -2.7215576 6.078743 -6.0787354 6.078743l0 0c-3.3572388 0 -6.0787964 -2.72155 -6.0787964 -6.078743z" fill-rule="evenodd"/><path fill="#0000ff" d="m867.02747 80.33845l0 0c0 -3.3572006 2.7214966 -6.078743 6.0787354 -6.078743l0 0c1.6121826 0 3.1583252 0.64043427 4.298279 1.780426c1.1400146 1.1399841 1.7804565 2.6861343 1.7804565 4.298317l0 0c0 3.357193 -2.7215576 6.0787354 -6.0787354 6.0787354l0 0c-3.3572388 0 -6.0787354 -2.7215424 -6.0787354 -6.0787354z" fill-rule="evenodd"/><path fill="#0000ff" d="m881.57336 101.64028l0 0c0 -3.357193 2.7215576 -6.0787354 6.0787354 -6.0787354l0 0c1.6121826 0 3.1583252 0.64043427 4.29834 1.7804184c1.1399536 1.1399841 1.7803955 2.6861343 1.7803955 4.298317l0 0c0 3.357193 -2.7214966 6.078743 -6.0787354 6.078743l0 0c-3.3571777 0 -6.0787354 -2.72155 -6.0787354 -6.078743z" fill-rule="evenodd"/><path fill="#0000ff" d="m409.55136 348.96484l0 0c0 -3.3572083 2.7215576 -6.078766 6.0787354 -6.078766l0 0c1.6121826 0 3.1583557 0.6404419 4.29834 1.780426c1.1399841 1.1399841 1.7803955 2.6861572 1.7803955 4.29834l0 0c0 3.3571777 -2.721527 6.0787354 -6.0787354 6.0787354l0 0c-3.3571777 0 -6.0787354 -2.7215576 -6.0787354 -6.0787354z" fill-rule="evenodd"/><path fill="#0000ff" d="m443.3939 348.96484l0 0c0 -3.3572083 2.721527 -6.078766 6.0787354 -6.078766l0 0c1.6121826 0 3.1583252 0.6404419 4.2983093 1.780426c1.1399841 1.1399841 1.780426 2.6861572 1.780426 4.29834l0 0c0 3.3571777 -2.721527 6.0787354 -6.0787354 6.0787354l0 0c-3.3572083 0 -6.0787354 -2.7215576 -6.0787354 -6.0787354z" fill-rule="evenodd"/><path fill="#0000ff" d="m476.07104 348.96484l0 0c0 -3.3572083 2.7215576 -6.078766 6.0787354 -6.078766l0 0c1.6121826 0 3.1583557 0.6404419 4.29834 1.780426c1.1399841 1.1399841 1.7803955 2.6861572 1.7803955 4.29834l0 0c0 3.3571777 -2.721527 6.0787354 -6.0787354 6.0787354l0 0c-3.3571777 0 -6.0787354 -2.7215576 -6.0787354 -6.0787354z" fill-rule="evenodd"/><path fill="#0000ff" d="m509.91357 348.96484l0 0c0 -3.3572083 2.7215576 -6.078766 6.0787354 -6.078766l0 0c1.6121826 0 3.1583252 0.6404419 4.29834 1.780426c1.1399536 1.1399841 1.7803955 2.6861572 1.7803955 4.29834l0 0c0 3.3571777 -2.7215576 6.0787354 -6.0787354 6.0787354l0 0c-3.3571777 0 -6.0787354 -2.7215576 -6.0787354 -6.0787354z" fill-rule="evenodd"/><path fill="#0000ff" d="m341.86633 371.2929l0 0c0 -3.3571777 2.721527 -6.0787354 6.0787354 -6.0787354l0 0c1.6121826 0 3.1583252 0.6404419 4.2983093 1.780426c1.1399841 1.1399841 1.780426 2.6861267 1.780426 4.2983093l0 0c0 3.3572083 -2.7215576 6.0787354 -6.0787354 6.0787354l0 0c-3.3572083 0 -6.0787354 -2.721527 -6.0787354 -6.0787354z" fill-rule="evenodd"/><path fill="#0000ff" d="m375.70883 371.2929l0 0c0 -3.3571777 2.7215576 -6.0787354 6.078766 -6.0787354l0 0c1.6121826 0 3.1583252 0.6404419 4.2983093 1.780426c1.1399841 1.1399841 1.780426 2.6861267 1.780426 4.2983093l0 0c0 3.3572083 -2.7215576 6.0787354 -6.0787354 6.0787354l0 0c-3.3572083 0 -6.078766 -2.721527 -6.078766 -6.0787354z" fill-rule="evenodd"/><path fill="#0000ff" d="m409.55136 371.2929l0 0c0 -3.3571777 2.7215576 -6.0787354 6.0787354 -6.0787354l0 0c1.6121826 0 3.1583557 0.6404419 4.29834 1.780426c1.1399841 1.1399841 1.7803955 2.6861267 1.7803955 4.2983093l0 0c0 3.3572083 -2.721527 6.0787354 -6.0787354 6.0787354l0 0c-3.3571777 0 -6.0787354 -2.721527 -6.0787354 -6.0787354z" fill-rule="evenodd"/><path fill="#0000ff" d="m443.3939 371.2929l0 0c0 -3.3571777 2.721527 -6.0787354 6.0787354 -6.0787354l0 0c1.6121826 0 3.1583252 0.6404419 4.2983093 1.780426c1.1399841 1.1399841 1.780426 2.6861267 1.780426 4.2983093l0 0c0 3.3572083 -2.721527 6.0787354 -6.0787354 6.0787354l0 0c-3.3572083 0 -6.0787354 -2.721527 -6.0787354 -6.0787354z" fill-rule="evenodd"/><path fill="#0000ff" d="m476.07104 371.2929l0 0c0 -3.3571777 2.7215576 -6.0787354 6.0787354 -6.0787354l0 0c1.6121826 0 3.1583557 0.6404419 4.29834 1.780426c1.1399841 1.1399841 1.7803955 2.6861267 1.7803955 4.2983093l0 0c0 3.3572083 -2.721527 6.0787354 -6.0787354 6.0787354l0 0c-3.3571777 0 -6.0787354 -2.721527 -6.0787354 -6.0787354z" fill-rule="evenodd"/><path fill="#0000ff" d="m509.91357 371.2929l0 0c0 -3.3571777 2.7215576 -6.0787354 6.0787354 -6.0787354l0 0c1.6121826 0 3.1583252 0.6404419 4.29834 1.780426c1.1399536 1.1399841 1.7803955 2.6861267 1.7803955 4.2983093l0 0c0 3.3572083 -2.7215576 6.0787354 -6.0787354 6.0787354l0 0c-3.3571777 0 -6.0787354 -2.721527 -6.0787354 -6.0787354z" fill-rule="evenodd"/><path fill="#9fc5e8" d="m144.6322 505.31216l101.38582 -58.53543l-9.755905 -16.897644l53.3071 14.283478l-14.283478 53.307068l-9.75589 -16.897644l-101.38583 58.53543l7.141739 -26.653503z" fill-rule="evenodd"/><path stroke="#000000" stroke-width="3.0" stroke-linejoin="round" stroke-linecap="butt" d="m144.6322 505.31216l101.38582 -58.53543l-9.755905 -16.897644l53.3071 14.283478l-14.283478 53.307068l-9.75589 -16.897644l-101.38583 58.53543l7.141739 -26.653503z" fill-rule="evenodd"/><path fill="#9fc5e8" d="m515.1125 310.48538l101.385864 -58.53543l-9.75592 -16.897629l53.307068 14.283463l-14.283447 53.3071l-9.75592 -16.897644l-101.3858 58.53543l7.1417236 -26.653534z" fill-rule="evenodd"/><path stroke="#000000" stroke-width="3.0" stroke-linejoin="round" stroke-linecap="butt" d="m515.1125 310.48538l101.385864 -58.53543l-9.75592 -16.897629l53.307068 14.283463l-14.283447 53.3071l-9.75592 -16.897644l-101.3858 58.53543l7.1417236 -26.653534z" fill-rule="evenodd"/></g></svg>