<svg version="1.1" viewBox="0.0 0.0 995.5196850393701 660.6640419947506" fill="none" stroke="none" stroke-linecap="square" stroke-miterlimit="10" xmlns:xlink="http://www.w3.org/1999/xlink" xmlns="http://www.w3.org/2000/svg"><clipPath id="p.0"><path d="m0 0l995.5197 0l0 660.66406l-995.5197 0l0 -660.66406z" clip-rule="nonzero"/></clipPath><g clip-path="url(#p.0)"><path fill="#000000" fill-opacity="0.0" d="m0 0l995.5197 0l0 660.66406l-995.5197 0z" fill-rule="evenodd"/><path fill="#efefef" d="m16.254593 377.3727l296.69293 0l0 82.64566l-296.69293 0z" fill-rule="evenodd"/><path fill="#003b4f" d="m26.551468 404.2927l0 -0.90625l2.453125 0l0 -6.265625l-1.90625 0l0 -0.703125q0.5 -0.0625 0.890625 -0.15625q0.390625 -0.09375 0.703125 -0.203125q0.328125 -0.125 0.59375 -0.265625l0.8125 0l0 7.59375l2.21875 0l0 0.90625l-5.765625 0z" fill-rule="nonzero"/><path fill="#000000" d="m61.413834 404.51144q-0.921875 0 -1.609375 -0.359375q-0.671875 -0.375 -1.046875 -1.015625q-0.375 -0.640625 -0.375 -1.421875q0 -1.546875 1.40625 -2.359375q1.40625 -0.828125 4.6875 -1.015625q-0.046875 -0.421875 -0.28125 -0.71875q-0.21875 -0.3125 -0.640625 -0.46875q-0.421875 -0.15625 -1.046875 -0.15625q-0.453125 0 -0.90625 0.109375q-0.4375 0.09375 -0.921875 0.296875q-0.46875 0.1875 -1.0 0.453125l-0.96875 -1.796875q0.640625 -0.359375 1.328125 -0.640625q0.703125 -0.28125 1.453125 -0.4375q0.765625 -0.171875 1.546875 -0.171875q1.3125 0 2.234375 0.46875q0.9375 0.453125 1.4375 1.375q0.515625 0.921875 0.515625 2.34375l0 5.296875l-2.234375 0l-0.21875 -1.046875l-0.0625 0q-0.703125 0.53125 -1.546875 0.90625q-0.828125 0.359375 -1.75 0.359375zm0.890625 -2.125q0.609375 0 1.140625 -0.25q0.546875 -0.25 1.03125 -0.625l0 -1.53125q-1.359375 0.078125 -2.125 0.28125q-0.75 0.203125 -1.046875 0.53125q-0.296875 0.3125 -0.296875 0.71875q0 0.28125 0.15625 0.484375q0.15625 0.203125 0.453125 0.296875q0.296875 0.09375 0.6875 0.09375zm13.506256 2.125q-1.734375 0 -2.640625 -1.03125q-0.890625 -1.046875 -0.890625 -2.8125l0 -7.28125l-2.890625 0l0 -2.15625l5.625 0l0 9.5625q0 0.84375 0.46875 1.171875q0.46875 0.328125 1.03125 0.328125q0.328125 0 0.671875 -0.0625q0.359375 -0.078125 0.78125 -0.234375l0.59375 2.015625q-0.703125 0.21875 -1.296875 0.359375q-0.578125 0.140625 -1.453125 0.140625zm11.053131 0q-1.46875 0 -2.34375 -0.5q-0.859375 -0.515625 -1.25 -1.421875q-0.390625 -0.921875 -0.390625 -2.140625l0 -3.265625l-2.3125 0l0 -2.03125l2.4375 -0.109375l0.359375 -2.84375l2.25 0l0 2.84375l3.921875 0l0 2.140625l-3.921875 0l0 3.25q0 0.6875 0.203125 1.125q0.21875 0.421875 0.640625 0.625q0.421875 0.1875 1.09375 0.1875q0.546875 0 0.984375 -0.09375q0.453125 -0.09375 0.875 -0.234375l0.484375 1.96875q-0.625 0.1875 -1.359375 0.34375q-0.734375 0.15625 -1.671875 0.15625zm9.553131 0q-0.953125 0 -1.5625 -0.625q-0.59375 -0.640625 -0.59375 -1.546875q0 -0.921875 0.59375 -1.5625q0.609375 -0.640625 1.5625 -0.640625q0.96875 0 1.5625 0.640625q0.609375 0.640625 0.609375 1.5625q0 0.90625 -0.609375 1.546875q-0.59375 0.625 -1.5625 0.625zm12.240631 0q-1.140625 0 -2.15625 -0.390625q-1.015625 -0.390625 -1.796875 -1.171875q-0.78125 -0.796875 -1.234375 -1.96875q-0.453125 -1.171875 -0.453125 -2.6875q0 -2.015625 0.78125 -3.4375q0.78125 -1.4375 2.09375 -2.1875q1.3125 -0.765625 2.9375 -0.765625q1.15625 0 2.078125 0.484375q0.9375 0.46875 1.5625 1.0625l-1.515625 1.703125q-0.4375 -0.40625 -0.953125 -0.640625q-0.5 -0.234375 -1.171875 -0.234375q-0.859375 0 -1.53125 0.484375q-0.671875 0.46875 -1.0625 1.34375q-0.390625 0.875 -0.390625 2.09375q0 1.25 0.390625 2.140625q0.390625 0.875 1.078125 1.34375q0.703125 0.46875 1.625 0.46875q0.671875 0 1.203125 -0.296875q0.546875 -0.3125 1.0 -0.796875l1.515625 1.671875q-0.75 0.875 -1.765625 1.328125q-1.0 0.453125 -2.234375 0.453125zm5.896881 -0.21875l0 -13.078125l2.734375 0l0 3.203125l-0.140625 1.78125l0.0625 0q0.515625 -0.546875 1.265625 -0.96875q0.765625 -0.421875 1.8125 -0.421875q1.5625 0 2.28125 1.015625q0.71875 1.0 0.71875 2.765625l0 5.703125l-2.75 0l0 -5.359375q0 -0.921875 -0.3125 -1.34375q-0.296875 -0.4375 -1.046875 -0.4375q-0.5625 0 -0.984375 0.25q-0.40625 0.25 -0.90625 0.71875l0 6.171875l-2.734375 0zm14.021881 0.21875q-0.921875 0 -1.609375 -0.359375q-0.671875 -0.375 -1.046875 -1.015625q-0.375 -0.640625 -0.375 -1.421875q0 -1.546875 1.40625 -2.359375q1.40625 -0.828125 4.6875 -1.015625q-0.046875 -0.421875 -0.28125 -0.71875q-0.21875 -0.3125 -0.640625 -0.46875q-0.421875 -0.15625 -1.046875 -0.15625q-0.453125 0 -0.90625 0.109375q-0.4375 0.09375 -0.921875 0.296875q-0.46875 0.1875 -1.0 0.453125l-0.96875 -1.796875q0.640625 -0.359375 1.328125 -0.640625q0.703125 -0.28125 1.453125 -0.4375q0.765625 -0.171875 1.546875 -0.171875q1.3125 0 2.234375 0.46875q0.9375 0.453125 1.4375 1.375q0.515625 0.921875 0.515625 2.34375l0 5.296875l-2.234375 0l-0.21875 -1.046875l-0.0625 0q-0.703125 0.53125 -1.546875 0.90625q-0.828125 0.359375 -1.75 0.359375zm0.890625 -2.125q0.609375 0 1.140625 -0.25q0.546875 -0.25 1.03125 -0.625l0 -1.53125q-1.359375 0.078125 -2.125 0.28125q-0.75 0.203125 -1.046875 0.53125q-0.296875 0.3125 -0.296875 0.71875q0 0.28125 0.15625 0.484375q0.15625 0.203125 0.453125 0.296875q0.296875 0.09375 0.6875 0.09375zm8.303131 1.90625l0 -9.25l2.234375 0l0.21875 2.015625l0.0625 0q0.6875 -1.140625 1.65625 -1.6875q0.984375 -0.5625 2.09375 -0.5625q0.609375 0 0.984375 0.09375q0.390625 0.09375 0.796875 0.28125l-0.5625 2.296875q-0.421875 -0.125 -0.765625 -0.1875q-0.34375 -0.078125 -0.875 -0.078125q-0.859375 0 -1.6875 0.515625q-0.828125 0.5 -1.421875 1.75l0 4.8125l-2.734375 0zm16.256256 0.21875q-1.46875 0 -2.34375 -0.5q-0.859375 -0.515625 -1.25 -1.421875q-0.390625 -0.921875 -0.390625 -2.140625l0 -3.265625l-2.3125 0l0 -2.03125l2.4375 -0.109375l0.359375 -2.84375l2.25 0l0 2.84375l3.921875 0l0 2.140625l-3.921875 0l0 3.25q0 0.6875 0.203125 1.125q0.21875 0.421875 0.640625 0.625q0.421875 0.1875 1.09375 0.1875q0.546875 0 0.984375 -0.09375q0.453125 -0.09375 0.875 -0.234375l0.484375 1.96875q-0.625 0.1875 -1.359375 0.34375q-0.734375 0.15625 -1.671875 0.15625zm11.271881 3.125q-1.8125 -1.625 -2.875 -3.765625q-1.0625 -2.140625 -1.0625 -4.765625q0 -2.625 1.0625 -4.765625q1.0625 -2.15625 2.875 -3.765625l1.53125 1.21875q-1.6875 1.625 -2.4375 3.359375q-0.734375 1.734375 -0.734375 3.953125q0 2.203125 0.734375 3.953125q0.75 1.734375 2.4375 3.359375l-1.53125 1.21875z" fill-rule="nonzero"/><path fill="#003b4f" d="m26.223343 426.2927l0 -0.65625q1.4375 -1.265625 2.421875 -2.234375q1.0 -0.96875 1.515625 -1.734375q0.53125 -0.765625 0.53125 -1.484375q0 -0.734375 -0.453125 -1.1875q-0.453125 -0.46875 -1.40625 -0.46875q-0.59375 0 -1.109375 0.296875q-0.515625 0.28125 -0.921875 0.71875l-0.625 -0.625q0.578125 -0.578125 1.234375 -0.921875q0.65625 -0.359375 1.5625 -0.359375q0.859375 0 1.46875 0.3125q0.625 0.3125 0.953125 0.875q0.34375 0.546875 0.34375 1.3125q0 0.796875 -0.5 1.609375q-0.484375 0.8125 -1.375 1.71875q-0.875 0.890625 -2.03125 1.96875q0.390625 -0.046875 0.78125 -0.0625q0.40625 -0.03125 0.796875 -0.03125l2.796875 0l0 0.953125l-5.984375 0z" fill-rule="nonzero"/><path fill="#000000" d="m106.60449 425.71457l-7.1875 -4.671875l0 -1.890625l7.1875 -4.671875l0 2.484375l-4.9375 3.09375l0 0.078125l4.9375 3.09375l0 2.484375zm7.428131 0.796875q-1.203125 0 -2.296875 -0.5625q-1.078125 -0.578125 -1.75 -1.65625q-0.671875 -1.09375 -0.671875 -2.625q0 -1.53125 0.671875 -2.625q0.671875 -1.09375 1.75 -1.65625q1.09375 -0.578125 2.296875 -0.578125q1.21875 0 2.296875 0.578125q1.078125 0.5625 1.75 1.65625q0.671875 1.09375 0.671875 2.625q0 1.53125 -0.671875 2.625q-0.671875 1.078125 -1.75 1.65625q-1.078125 0.5625 -2.296875 0.5625zm0 -2.21875q0.640625 0 1.0625 -0.3125q0.421875 -0.3125 0.625 -0.90625q0.21875 -0.609375 0.21875 -1.40625q0 -0.796875 -0.21875 -1.390625q-0.203125 -0.609375 -0.625 -0.921875q-0.421875 -0.3125 -1.0625 -0.3125q-0.625 0 -1.046875 0.3125q-0.421875 0.3125 -0.640625 0.921875q-0.21875 0.59375 -0.21875 1.390625q0 0.796875 0.21875 1.40625q0.21875 0.59375 0.640625 0.90625q0.421875 0.3125 1.046875 0.3125zm6.943756 5.4375l0 -12.6875l2.234375 0l0.203125 0.921875l0.0625 0q0.578125 -0.5 1.296875 -0.828125q0.71875 -0.328125 1.46875 -0.328125q1.15625 0 1.984375 0.578125q0.828125 0.578125 1.265625 1.65625q0.453125 1.0625 0.453125 2.46875q0 1.59375 -0.578125 2.71875q-0.5625 1.109375 -1.484375 1.703125q-0.90625 0.578125 -1.9375 0.578125q-0.625 0 -1.21875 -0.25q-0.578125 -0.265625 -1.0625 -0.75l-0.078125 0l0.125 1.515625l0 2.703125l-2.734375 0zm4.328125 -5.453125q0.515625 0 0.921875 -0.28125q0.421875 -0.28125 0.65625 -0.875q0.25 -0.609375 0.25 -1.5625q0 -0.84375 -0.1875 -1.390625q-0.1875 -0.546875 -0.546875 -0.828125q-0.359375 -0.28125 -0.96875 -0.28125q-0.4375 0 -0.859375 0.203125q-0.421875 0.1875 -0.859375 0.65625l0 3.75q0.40625 0.3125 0.8125 0.46875q0.421875 0.140625 0.78125 0.140625zm12.756256 2.234375q-1.46875 0 -2.34375 -0.5q-0.859375 -0.515625 -1.25 -1.421875q-0.390625 -0.921875 -0.390625 -2.140625l0 -3.265625l-2.3125 0l0 -2.03125l2.4375 -0.109375l0.359375 -2.84375l2.25 0l0 2.84375l3.921875 0l0 2.140625l-3.921875 0l0 3.25q0 0.6875 0.203125 1.125q0.21875 0.421875 0.640625 0.625q0.421875 0.1875 1.09375 0.1875q0.546875 0 0.984375 -0.09375q0.453125 -0.09375 0.875 -0.234375l0.484375 1.96875q-0.625 0.1875 -1.359375 0.34375q-0.734375 0.15625 -1.671875 0.15625zm9.146881 -0.21875l0 -7.109375l-3.734375 0l0 -2.140625l6.46875 0l0 9.25l-2.734375 0zm1.25 -10.703125q-0.78125 0 -1.3125 -0.453125q-0.515625 -0.46875 -0.515625 -1.21875q0 -0.765625 0.515625 -1.234375q0.53125 -0.46875 1.3125 -0.46875q0.8125 0 1.3125 0.46875q0.515625 0.46875 0.515625 1.234375q0 0.75 -0.515625 1.21875q-0.5 0.453125 -1.3125 0.453125zm10.350006 10.921875q-1.203125 0 -2.296875 -0.5625q-1.078125 -0.578125 -1.75 -1.65625q-0.671875 -1.09375 -0.671875 -2.625q0 -1.53125 0.671875 -2.625q0.671875 -1.09375 1.75 -1.65625q1.09375 -0.578125 2.296875 -0.578125q1.21875 0 2.296875 0.578125q1.078125 0.5625 1.75 1.65625q0.671875 1.09375 0.671875 2.625q0 1.53125 -0.671875 2.625q-0.671875 1.078125 -1.75 1.65625q-1.078125 0.5625 -2.296875 0.5625zm0 -2.21875q0.640625 0 1.0625 -0.3125q0.421875 -0.3125 0.625 -0.90625q0.21875 -0.609375 0.21875 -1.40625q0 -0.796875 -0.21875 -1.390625q-0.203125 -0.609375 -0.625 -0.921875q-0.421875 -0.3125 -1.0625 -0.3125q-0.625 0 -1.046875 0.3125q-0.421875 0.3125 -0.640625 0.921875q-0.21875 0.59375 -0.21875 1.390625q0 0.796875 0.21875 1.40625q0.21875 0.59375 0.640625 0.90625q0.421875 0.3125 1.046875 0.3125zm6.943756 2.0l0 -9.25l2.234375 0l0.203125 1.234375l0.078125 0q0.59375 -0.609375 1.359375 -1.03125q0.78125 -0.4375 1.828125 -0.4375q1.578125 0 2.296875 1.015625q0.734375 1.0 0.734375 2.765625l0 5.703125l-2.75 0l0 -5.359375q0 -0.921875 -0.3125 -1.34375q-0.296875 -0.4375 -1.046875 -0.4375q-0.5625 0 -0.984375 0.25q-0.40625 0.25 -0.90625 0.71875l0 6.171875l-2.734375 0zm15.365631 0.21875q-1.21875 0 -2.4375 -0.40625q-1.21875 -0.421875 -2.09375 -1.0l1.1875 -1.71875q0.828125 0.53125 1.765625 0.8125q0.953125 0.28125 1.953125 0.28125q0.765625 0 1.125 -0.234375q0.359375 -0.234375 0.359375 -0.546875q0 -0.203125 -0.109375 -0.34375q-0.109375 -0.140625 -0.359375 -0.265625q-0.25 -0.125 -0.6875 -0.234375q-0.4375 -0.109375 -1.125 -0.25q-1.890625 -0.421875 -2.71875 -1.125q-0.8125 -0.703125 -0.8125 -1.765625q0 -1.3125 1.140625 -2.109375q1.140625 -0.796875 3.125 -0.796875q1.25 0 2.265625 0.40625q1.015625 0.40625 1.734375 0.875l-1.234375 1.640625q-0.6875 -0.4375 -1.46875 -0.65625q-0.78125 -0.21875 -1.546875 -0.21875q-0.421875 0 -0.703125 0.078125q-0.28125 0.078125 -0.4375 0.265625q-0.140625 0.171875 -0.140625 0.375q0 0.375 0.484375 0.5625q0.484375 0.171875 1.65625 0.421875q1.421875 0.328125 2.21875 0.734375q0.796875 0.40625 1.109375 0.9375q0.3125 0.53125 0.3125 1.296875q0 0.84375 -0.515625 1.515625q-0.515625 0.671875 -1.53125 1.078125q-1.015625 0.390625 -2.515625 0.390625zm7.506256 -0.796875l0 -2.484375l4.9375 -3.09375l0 -0.078125l-4.9375 -3.09375l0 -2.484375l7.203125 4.671875l0 1.890625l-7.203125 4.671875z" fill-rule="nonzero"/><path fill="#003b4f" d="m29.082718 448.44894q-0.734375 0 -1.3125 -0.171875q-0.5625 -0.171875 -1.0 -0.4375q-0.4375 -0.265625 -0.75 -0.59375l0.546875 -0.71875q0.4375 0.40625 1.03125 0.71875q0.609375 0.296875 1.421875 0.296875q0.578125 0 1.03125 -0.1875q0.46875 -0.203125 0.734375 -0.546875q0.265625 -0.359375 0.265625 -0.828125q0 -0.5 -0.3125 -0.875q-0.296875 -0.390625 -0.984375 -0.59375q-0.671875 -0.21875 -1.796875 -0.21875l0 -0.84375q1.015625 0 1.625 -0.203125q0.609375 -0.21875 0.875 -0.5625q0.28125 -0.359375 0.28125 -0.8125q0 -0.625 -0.46875 -0.984375q-0.46875 -0.359375 -1.25 -0.359375q-0.609375 0 -1.15625 0.234375q-0.53125 0.234375 -0.9375 0.625l-0.59375 -0.6875q0.53125 -0.46875 1.21875 -0.765625q0.6875 -0.296875 1.5 -0.296875q0.796875 0 1.421875 0.25q0.640625 0.25 1.015625 0.734375q0.375 0.46875 0.375 1.171875q0 0.765625 -0.515625 1.265625q-0.515625 0.484375 -1.296875 0.75l0 0.0625q0.5625 0.109375 1.046875 0.40625q0.484375 0.28125 0.765625 0.71875q0.296875 0.4375 0.296875 1.03125q0 0.765625 -0.421875 1.3125q-0.421875 0.53125 -1.125 0.828125q-0.6875 0.28125 -1.53125 0.28125z" fill-rule="nonzero"/><path fill="#000000" d="m61.11696 451.63644l-1.53125 -1.21875q1.6875 -1.625 2.421875 -3.359375q0.75 -1.75 0.75 -3.953125q0 -2.21875 -0.75 -3.953125q-0.734375 -1.734375 -2.421875 -3.359375l1.53125 -1.21875q1.8125 1.609375 2.875 3.765625q1.0625 2.140625 1.0625 4.765625q0 2.625 -1.0625 4.765625q-1.0625 2.140625 -2.875 3.765625z" fill-rule="nonzero"/><path fill="#000000" fill-opacity="0.0" d="m45.372704 601.54333l0 -132.40948" fill-rule="evenodd"/><path stroke="#000000" stroke-width="3.0" stroke-linejoin="round" stroke-linecap="butt" d="m45.372704 601.54333l0 -122.128235" fill-rule="evenodd"/><path fill="#000000" stroke="#000000" stroke-width="3.0" stroke-linecap="butt" d="m45.372704 479.41513l3.3737488 3.3737488l-3.3737488 -9.269318l-3.3737526 9.269318z" fill-rule="evenodd"/><path fill="#000000" fill-opacity="0.0" d="m45.372704 601.54333l238.4567 0" fill-rule="evenodd"/><path stroke="#000000" stroke-width="3.0" stroke-linejoin="round" stroke-linecap="butt" d="m45.372704 601.54333l228.17545 0" fill-rule="evenodd"/><path fill="#000000" stroke="#000000" stroke-width="3.0" stroke-linecap="butt" d="m273.54813 601.54333l-3.3737488 3.3737183l9.269318 -3.3737183l-9.269318 -3.3737793z" fill-rule="evenodd"/><path fill="#000000" fill-opacity="0.0" d="m10.018373 463.7953l34.58268 0l0 24.75589l-34.58268 0z" fill-rule="evenodd"/><path fill="#000000" d="m21.295597 472.52512l2.90625 0l2.953127 7.109375l3.25 -7.109375l2.906248 0l-7.093748 15.46875l-2.937502 0l2.328125 -4.984375l-4.3125 -10.484375z" fill-rule="nonzero"/><path fill="#000000" fill-opacity="0.0" d="m50.947506 617.91077l227.3071 0l0 24.75592l-227.3071 0z" fill-rule="evenodd"/><path fill="#000000" d="m97.60691 624.0381l-2.421875 2.140625q-1.28125 -1.78125 -2.59375 -1.78125q-0.65625 0 -1.0625 0.34375q-0.40625 0.34375 -0.40625 0.78125q0 0.4375 0.296875 0.8125q0.390625 0.515625 2.390625 2.21875q1.875 1.578125 2.28125 1.984375q1.0 1.0 1.40625 1.921875q0.421875 0.921875 0.421875 2.015625q0 2.125 -1.46875 3.515625q-1.46875 1.375 -3.8125 1.375q-1.84375 0 -3.21875 -0.90625q-1.359375 -0.90625 -2.328125 -2.84375l2.75 -1.65625q1.25 2.28125 2.859375 2.28125q0.84375 0 1.421875 -0.484375q0.578125 -0.5 0.578125 -1.140625q0 -0.59375 -0.4375 -1.171875q-0.4375 -0.59375 -1.90625 -1.796875q-2.8125 -2.296875 -3.640625 -3.546875q-0.8125 -1.25 -0.8125 -2.484375q0 -1.796875 1.359375 -3.078125q1.359375 -1.28125 3.375 -1.28125q1.28125 0 2.4375 0.59375q1.171875 0.59375 2.53125 2.1875zm3.4335938 -2.34375l3.484375 0q2.828125 0 4.078125 0.515625q1.25 0.515625 1.96875 1.6875q0.71875 1.171875 0.71875 2.796875q0 1.796875 -0.953125 3.0q-0.9375 1.1875 -2.546875 1.65625q-0.953125 0.28125 -3.46875 0.28125l0 7.296875l-3.28125 0l0 -17.234375zm3.28125 6.734375l1.046875 0q1.234375 0 1.703125 -0.171875q0.484375 -0.1875 0.765625 -0.578125q0.28125 -0.40625 0.28125 -0.984375q0 -1.0 -0.78125 -1.453125q-0.5625 -0.34375 -2.078125 -0.34375l-0.9375 0l0 3.53125zm10.191406 -6.734375l9.40625 0l0 3.203125l-6.15625 0l0 3.125l6.15625 0l0 3.140625l-6.15625 0l0 4.546875l6.15625 0l0 3.21875l-9.40625 0l0 -17.234375zm28.308586 3.03125l-2.296875 2.1875q-2.34375 -2.46875 -5.265625 -2.46875q-2.484375 0 -4.171875 1.6875q-1.6875 1.6875 -1.6875 4.15625q0 1.71875 0.75 3.0625q0.75 1.328125 2.109375 2.09375q1.375 0.765625 3.046875 0.765625q1.4375 0 2.609375 -0.53125q1.1875 -0.53125 2.609375 -1.9375l2.234375 2.3125q-1.921875 1.859375 -3.625 2.59375q-1.6875 0.71875 -3.875 0.71875q-4.015625 0 -6.578125 -2.546875q-2.5624924 -2.5625 -2.5624924 -6.546875q0 -2.578125 1.171875 -4.578125q1.1718674 -2.0 3.3437424 -3.21875q2.171875 -1.21875 4.671875 -1.21875q2.140625 0 4.109375 0.90625q1.984375 0.890625 3.40625 2.5625zm2.6367188 -3.03125l3.265625 0l0 17.234375l-3.265625 0l0 -17.234375zm6.9960938 0l8.5625 0l0 3.1875l-5.3125 0l0 3.140625l5.3125 0l0 3.140625l-5.3125 0l0 7.765625l-3.25 0l0 -17.234375zm10.238281 0l3.53125 0l3.21875 6.1875l3.1875 -6.1875l3.46875 0l-5.03125 9.765625l0 7.46875l-3.3125 0l0 -7.46875l-5.0625 -9.765625zm28.082031 0l3.328125 0l6.640625 17.234375l-3.421875 0l-1.34375 -3.546875l-7.03125 0l-1.40625 3.546875l-3.40625 0l6.640625 -17.234375zm1.6875 4.5625l-2.296875 5.921875l4.578125 0l-2.28125 -5.921875zm9.691406 -4.5625l3.6875 0l3.609375 5.515625l3.65625 -5.515625l3.6875 0l-5.484375 8.34375l5.828125 8.890625l-3.703125 0l-3.984375 -6.0625l-3.9375 6.0625l-3.71875 0l5.828125 -8.890625l-5.46875 -8.34375zm17.464844 0l9.40625 0l0 3.203125l-6.15625 0l0 3.125l6.15625 0l0 3.140625l-6.15625 0l0 4.546875l6.15625 0l0 3.21875l-9.40625 0l0 -17.234375zm21.496094 2.34375l-2.421875 2.140625q-1.28125 -1.78125 -2.59375 -1.78125q-0.65625 0 -1.0625 0.34375q-0.40625 0.34375 -0.40625 0.78125q0 0.4375 0.296875 0.8125q0.390625 0.515625 2.390625 2.21875q1.875 1.578125 2.28125 1.984375q1.0 1.0 1.40625 1.921875q0.421875 0.921875 0.421875 2.015625q0 2.125 -1.46875 3.515625q-1.46875 1.375 -3.8125 1.375q-1.84375 0 -3.21875 -0.90625q-1.359375 -0.90625 -2.328125 -2.84375l2.75 -1.65625q1.25 2.28125 2.859375 2.28125q0.84375 0 1.421875 -0.484375q0.578125 -0.5 0.578125 -1.140625q0 -0.59375 -0.4375 -1.171875q-0.4375 -0.59375 -1.90625 -1.796875q-2.8125 -2.296875 -3.640625 -3.546875q-0.8125 -1.25 -0.8125 -2.484375q0 -1.796875 1.359375 -3.078125q1.359375 -1.28125 3.375 -1.28125q1.28125 0 2.4375 0.59375q1.171875 0.59375 2.53125 2.1875z" fill-rule="nonzero"/><path fill="#000000" fill-opacity="0.0" d="m274.4987 601.54333l34.582672 0l0 24.75586l-34.582672 0z" fill-rule="evenodd"/><path fill="#000000" d="m286.2394 610.27313l3.296875 0l2.21875 3.09375l2.25 -3.09375l3.265625 0l-3.875 5.359375l4.359375 5.96875l-3.296875 0l-2.703125 -3.71875l-2.671875 3.71875l-3.25 0l4.28125 -5.96875l-3.875 -5.359375z" fill-rule="nonzero"/></g></svg>