<svg version="1.1" viewBox="0.0 0.0 710.3884514435696 390.90813648293965" fill="none" stroke="none" stroke-linecap="square" stroke-miterlimit="10" xmlns:xlink="http://www.w3.org/1999/xlink" xmlns="http://www.w3.org/2000/svg"><clipPath id="p.0"><path d="m0 0l710.3884 0l0 390.90814l-710.3884 0l0 -390.90814z" clip-rule="nonzero"/></clipPath><g clip-path="url(#p.0)"><path fill="#000000" fill-opacity="0.0" d="m0 0l710.3884 0l0 390.90814l-710.3884 0z" fill-rule="evenodd"/><path fill="#000000" fill-opacity="0.0" d="m187.60367 341.88977l0 -290.17325" fill-rule="evenodd"/><path stroke="#000000" stroke-width="2.0" stroke-linejoin="round" stroke-linecap="butt" d="m187.60367 341.88977l0 -283.31906" fill-rule="evenodd"/><path fill="#000000" stroke="#000000" stroke-width="2.0" stroke-linecap="butt" d="m187.60367 58.57071l2.249176 2.2491646l-2.249176 -6.179535l-2.2491608 6.179535z" fill-rule="evenodd"/><path fill="#000000" fill-opacity="0.0" d="m187.60367 341.88977l451.68503 0" fill-rule="evenodd"/><path stroke="#000000" stroke-width="2.0" stroke-linejoin="round" stroke-linecap="butt" d="m187.60367 341.88977l444.8309 0" fill-rule="evenodd"/><path fill="#000000" stroke="#000000" stroke-width="2.0" stroke-linecap="butt" d="m632.4346 341.88977l-2.2492065 2.2491455l6.1795654 -2.2491455l-6.1795654 -2.249176z" fill-rule="evenodd"/><path fill="#000000" fill-opacity="0.0" d="m645.3438 316.0315l37.637817 0l0 51.716522l-37.637817 0z" fill-rule="evenodd"/><path fill="#000000" d="m655.2032 332.34915l3.625 0l3.0 7.65625l5.4375 -7.65625l4.125 0l-8.171875 11.484375l-1.03125 7.65625l-3.59375 0l1.0625 -7.65625l-4.453125 -11.484375z" fill-rule="nonzero"/><path fill="#000000" fill-opacity="0.0" d="m143.58792 0l88.031494 0l0 51.716534l-88.031494 0z" fill-rule="evenodd"/><path fill="#000000" d="m182.46248 16.317642l3.578125 0l-1.59375 11.8125q-0.203125 1.546875 -0.203125 2.1875q0 1.078125 0.671875 1.6875q0.671875 0.609375 1.9375 0.609375q1.03125 0 1.796875 -0.46875q0.578125 -0.328125 0.921875 -1.109375q0.34375 -0.796875 0.671875 -3.140625l1.59375 -11.578125l3.625 0l-1.5625 11.421875q-0.484375 3.53125 -1.265625 5.0625q-0.78125 1.53125 -2.265625 2.34375q-1.46875 0.796875 -3.59375 0.796875q-2.859375 0 -4.46875 -1.515625q-1.59375 -1.53125 -1.59375 -4.171875q0 -1.15625 0.3125 -3.390625l1.4375 -10.546875z" fill-rule="nonzero"/><path fill="#000000" fill-opacity="0.0" d="m589.5 110.83596c-17.3208 43.311348 -41.131775 103.48521 -87.41733 109.27558c-54.93637 6.8726196 -108.96335 -56.364624 -161.48557 -38.853012c-53.677948 17.896957 -77.878204 84.173325 -103.20471 134.77165" fill-rule="evenodd"/><path stroke="#0000ff" stroke-width="4.0" stroke-linejoin="round" stroke-linecap="butt" stroke-dasharray="16.0,12.0" d="m589.5 110.83596c-17.3208 43.311348 -41.131775 103.48521 -87.41733 109.27558c-54.93637 6.8726196 -108.96335 -56.364624 -161.48557 -38.853012c-53.677948 17.896957 -77.878204 84.173325 -103.20471 134.77165" fill-rule="evenodd"/><path fill="#000000" fill-opacity="0.0" d="m255.25197 282.5261c18.779953 -37.612213 39.361435 -84.82127 79.244095 -98.11549c39.154236 -13.051407 83.83069 8.922638 120.75592 27.359573" fill-rule="evenodd"/><path stroke="#ff0000" stroke-width="8.0" stroke-linejoin="round" stroke-linecap="butt" d="m255.25197 282.5261c18.779953 -37.612213 39.361435 -84.82127 79.244095 -98.11549c39.154236 -13.051407 83.83069 8.922638 120.75592 27.359573" fill-rule="evenodd"/><path fill="#000000" fill-opacity="0.0" d="m589.50134 110.83727l123.87396 0l0 51.71653l-123.87396 0z" fill-rule="evenodd"/><path fill="#0000ff" d="m601.0326 132.13928l3.4375 0l-0.9375 7.234375q-0.15625 1.1875 -0.15625 1.796875q0 0.9375 0.640625 1.578125q0.65625 0.625 1.6875 0.625q1.34375 0 2.0625 -0.8125q0.734375 -0.828125 1.0625 -3.328125l0.984375 -7.09375l3.4375 0l-1.03125 7.609375q-0.359375 2.578125 -1.1875 4.0q-0.8125 1.40625 -2.1875 2.15625q-1.359375 0.75 -3.21875 0.75q-2.59375 0 -4.140625 -1.5q-1.53125 -1.5 -1.53125 -3.890625q0 -1.453125 0.328125 -3.734375l0.75 -5.390625z" fill-rule="nonzero"/><path fill="#0000ff" d="m623.4557 132.31116l13.0 0l0 3.265625l-13.0 0l0 -3.265625zm0 5.578125l13.0 0l0 3.25l-13.0 0l0 -3.25z" fill-rule="nonzero"/><path fill="#0000ff" d="m658.2226 132.13928l3.46875 0l-1.546875 11.328125q-0.453125 3.359375 -0.9375 4.453125q-0.75 1.6875 -2.546875 2.796875q-1.78125 1.125 -4.46875 1.125q-2.234375 0 -3.90625 -0.875q-1.65625 -0.859375 -2.46875 -2.21875l2.984375 -1.5625q1.328125 1.40625 3.484375 1.40625q1.25 0 2.15625 -0.453125q0.90625 -0.453125 1.40625 -1.234375q0.515625 -0.765625 0.734375 -2.28125q-1.890625 1.671875 -4.28125 1.671875q-1.671875 0 -3.09375 -0.828125q-1.40625 -0.84375 -2.21875 -2.359375q-0.796875 -1.53125 -0.796875 -3.40625q0 -2.09375 1.046875 -3.921875q1.0625 -1.84375 2.875 -2.921875q1.8125 -1.09375 3.796875 -1.09375q1.203125 0 2.171875 0.46875q0.984375 0.46875 1.921875 1.578125l0.21875 -1.671875zm-4.125 2.90625q-1.890625 0 -3.1875 1.328125q-1.296875 1.328125 -1.296875 3.265625q0 1.578125 0.953125 2.53125q0.96875 0.953125 2.59375 0.953125q1.203125 0 2.234375 -0.578125q1.03125 -0.59375 1.625 -1.6875q0.59375 -1.09375 0.59375 -2.359375q0 -1.484375 -0.984375 -2.46875q-0.984375 -0.984375 -2.53125 -0.984375z" fill-rule="nonzero"/><path fill="#0000ff" d="m667.9605 126.29554l4.5 0q-2.328125 2.6249924 -3.46875 5.6874924q-1.125 3.046875 -1.125 6.984375q0 4.25 1.265625 7.484375q0.984375 2.484375 3.328125 5.390625l-4.5 0q-2.09375 -3.3125 -2.921875 -6.1875q-0.828125 -2.890625 -0.828125 -6.796875q0 -3.828125 0.875 -6.703125q0.875 -2.875 2.875 -5.8593674z" fill-rule="nonzero"/><path fill="#0000ff" d="m673.71173 132.13928l3.421875 0l2.75 8.40625l4.84375 -8.40625l3.75 0l-11.125 19.34375l-3.671875 0l4.015625 -7.109375l-3.984375 -12.234375z" fill-rule="nonzero"/><path fill="#0000ff" d="m693.7838 151.8424l-4.5 0q2.3125 -2.625 3.453125 -5.671875q1.140625 -3.046875 1.140625 -7.0q0 -4.25 -1.265625 -7.46875q-0.984375 -2.484375 -3.328125 -5.4062424l4.5 0q2.09375 3.3124924 2.90625 6.2031174q0.828125 2.875 0.828125 6.78125q0 3.828125 -0.875 6.703125q-0.859375 2.875 -2.859375 5.859375z" fill-rule="nonzero"/><path fill="#000000" d="m247.24672 281.7848l0 0c0 -5.183655 4.202179 -9.385834 9.3858185 -9.385834l0 0c2.4892883 0 4.8766174 0.9888611 6.63678 2.749054c1.7601929 1.7601624 2.749054 4.1474915 2.749054 6.63678l0 0c0 5.1836243 -4.202179 9.385803 -9.385834 9.385803l0 0c-5.1836395 0 -9.3858185 -4.202179 -9.3858185 -9.385803z" fill-rule="evenodd"/><path stroke="#000000" stroke-width="1.0" stroke-linejoin="round" stroke-linecap="butt" d="m247.24672 281.7848l0 0c0 -5.183655 4.202179 -9.385834 9.3858185 -9.385834l0 0c2.4892883 0 4.8766174 0.9888611 6.63678 2.749054c1.7601929 1.7601624 2.749054 4.1474915 2.749054 6.63678l0 0c0 5.1836243 -4.202179 9.385803 -9.385834 9.385803l0 0c-5.1836395 0 -9.3858185 -4.202179 -9.3858185 -9.385803z" fill-rule="evenodd"/><path fill="#000000" d="m446.1601 213.43439l0 0c0 -5.183655 4.202179 -9.385834 9.385834 -9.385834l0 0c2.4892883 0 4.876587 0.9888611 6.63678 2.749054c1.7601929 1.7601776 2.749054 4.1475067 2.749054 6.63678l0 0c0 5.1836395 -4.202179 9.3858185 -9.385834 9.3858185l0 0c-5.183655 0 -9.385834 -4.202179 -9.385834 -9.3858185z" fill-rule="evenodd"/><path stroke="#000000" stroke-width="1.0" stroke-linejoin="round" stroke-linecap="butt" d="m446.1601 213.43439l0 0c0 -5.183655 4.202179 -9.385834 9.385834 -9.385834l0 0c2.4892883 0 4.876587 0.9888611 6.63678 2.749054c1.7601929 1.7601776 2.749054 4.1475067 2.749054 6.63678l0 0c0 5.1836395 -4.202179 9.3858185 -9.385834 9.3858185l0 0c-5.183655 0 -9.385834 -4.202179 -9.385834 -9.3858185z" fill-rule="evenodd"/><path fill="#000000" fill-opacity="0.0" d="m256.63254 291.1706l0 52.06299" fill-rule="evenodd"/><path stroke="#434343" stroke-width="2.0" stroke-linejoin="round" stroke-linecap="butt" stroke-dasharray="2.0,6.0" d="m256.63254 291.1706l0 52.06299" fill-rule="evenodd"/><path fill="#000000" fill-opacity="0.0" d="m455.54593 222.8202l0 119.464584" fill-rule="evenodd"/><path stroke="#434343" stroke-width="2.0" stroke-linejoin="round" stroke-linecap="butt" stroke-dasharray="2.0,6.0" d="m455.54593 222.8202l0 119.464584" fill-rule="evenodd"/><path fill="#000000" fill-opacity="0.0" d="m247.24672 281.7848l-57.543304 0" fill-rule="evenodd"/><path stroke="#434343" stroke-width="2.0" stroke-linejoin="round" stroke-linecap="butt" stroke-dasharray="2.0,6.0" d="m247.24672 281.7848l-57.543304 0" fill-rule="evenodd"/><path fill="#000000" fill-opacity="0.0" d="m360.85303 177.12335l-171.14961 0" fill-rule="evenodd"/><path stroke="#434343" stroke-width="2.0" stroke-linejoin="round" stroke-linecap="butt" stroke-dasharray="2.0,6.0" d="m360.85303 177.12335l-171.14961 0" fill-rule="evenodd"/><path fill="#e69138" fill-opacity="0.8" d="m255.54593 332.50394l200.0 0l0 18.771667l-200.0 0z" fill-rule="evenodd"/><path fill="#000000" fill-opacity="0.0" d="m303.53018 351.80316l116.47244 0l0 28.787384l-116.47244 0z" fill-rule="evenodd"/><path fill="#000000" d="m314.7333 356.17184l5.703125 0l0 3.3125l-2.109375 0l0 18.1875l2.109375 0l0 3.3125l-5.703125 0l0 -24.8125z" fill-rule="nonzero"/><path fill="#000000" d="m341.32602 361.6406l3.46875 0l-1.84375 14.15625l-3.4375 0l0.1875 -1.515625q-1.125 1.046875 -2.109375 1.46875q-0.984375 0.40625 -2.203125 0.40625q-2.8125 0 -4.484375 -2.0625q-1.65625 -2.078125 -1.65625 -4.8125q0 -2.09375 1.046875 -3.984375q1.0625 -1.90625 2.84375 -2.96875q1.78125 -1.0625 3.71875 -1.0625q1.296875 0 2.390625 0.609375q1.109375 0.59375 1.828125 1.734375l0.25 -1.96875zm-5.140625 11.421875q1.28125 0 2.234375 -0.5625q0.953125 -0.578125 1.59375 -1.796875q0.640625 -1.234375 0.640625 -2.5q0 -1.6875 -0.96875 -2.703125q-0.96875 -1.03125 -2.5625 -1.03125q-1.84375 0 -3.140625 1.375q-1.28125 1.359375 -1.28125 3.515625q0 1.671875 0.96875 2.6875q0.984375 1.015625 2.515625 1.015625z" fill-rule="nonzero"/><path fill="#000000" d="m357.06885 372.18747l2.546875 1.28125l-3.21875 5.484375l-1.78125 -0.84375l2.453125 -5.921875z" fill-rule="nonzero"/><path fill="#000000" d="m372.51614 375.79684l-3.46875 0l2.5625 -19.625l3.4375 0l-0.90625 6.984375q1.125 -1.0625 2.109375 -1.46875q0.984375 -0.421875 2.203125 -0.421875q2.8125 0 4.46875 2.078125q1.65625 2.0625 1.65625 4.796875q0 2.09375 -1.0625 4.0q-1.046875 1.90625 -2.828125 2.96875q-1.765625 1.046875 -3.6875 1.046875q-1.3125 0 -2.421875 -0.59375q-1.09375 -0.59375 -1.796875 -1.75l-0.265625 1.984375zm5.125 -11.4375q-1.265625 0 -2.21875 0.578125q-0.953125 0.578125 -1.59375 1.8125q-0.640625 1.21875 -0.640625 2.484375q0 1.6875 0.96875 2.703125q0.96875 1.015625 2.546875 1.015625q1.859375 0 3.140625 -1.359375q1.296875 -1.375 1.296875 -3.53125q0 -1.65625 -0.984375 -2.671875q-0.96875 -1.03125 -2.515625 -1.03125z" fill-rule="nonzero"/><path fill="#000000" d="m399.86832 380.98434l-5.703125 0l0 -3.328125l2.109375 0l0 -18.1875l-2.109375 0l0 -3.296875l5.703125 0l0 24.8125z" fill-rule="nonzero"/><path fill="#9900ff" fill-opacity="0.8" d="m196.9895 177.12335l0 105.00787l-18.771652 0l0 -105.00787z" fill-rule="evenodd"/><path fill="#000000" fill-opacity="0.0" d="m0 205.56693l171.14961 0l0 51.716553l-171.14961 0z" fill-rule="evenodd"/><path fill="#000000" d="m21.8125 228.30894l3.46875 0l-1.546875 11.328125q-0.453125 3.359375 -0.9375 4.453125q-0.75 1.6875 -2.546875 2.796875q-1.78125 1.125 -4.46875 1.125q-2.234375 0 -3.90625 -0.875q-1.65625 -0.859375 -2.46875 -2.21875l2.984375 -1.5625q1.328125 1.40625 3.484375 1.40625q1.25 0 2.15625 -0.453125q0.90625 -0.453125 1.40625 -1.234375q0.515625 -0.765625 0.734375 -2.28125q-1.890625 1.671875 -4.28125 1.671875q-1.671875 0 -3.09375 -0.828125q-1.40625 -0.84375 -2.21875 -2.359375q-0.796875 -1.53125 -0.796875 -3.40625q0 -2.09375 1.046875 -3.921875q1.0625 -1.84375 2.875 -2.921875q1.8125 -1.09375 3.796875 -1.09375q1.203125 0 2.171875 0.46875q0.984375 0.46875 1.921875 1.578125l0.21875 -1.671875zm-4.125 2.90625q-1.890625 0 -3.1875 1.328125q-1.296875 1.328125 -1.296875 3.265625q0 1.578125 0.953125 2.53125q0.96875 0.953125 2.59375 0.953125q1.203125 0 2.234375 -0.578125q1.03125 -0.59375 1.625 -1.6875q0.59375 -1.09375 0.59375 -2.359375q0 -1.484375 -0.984375 -2.46875q-0.984375 -0.984375 -2.53125 -0.984375z" fill-rule="nonzero"/><path fill="#000000" d="m32.28479 219.4652l5.1875 0q-2.671875 3.015625 -3.984375 6.53125q-1.3125 3.515625 -1.3125 8.046875q0 4.890625 1.453125 8.59375q1.140625 2.859375 3.84375 6.203125l-5.1875 0q-2.390625 -3.796875 -3.34375 -7.109375q-0.953125 -3.328125 -0.953125 -7.8125q0 -4.40625 1.0 -7.703125q1.0 -3.3125 3.296875 -6.75z" fill-rule="nonzero"/><path fill="#000000" d="m47.90422 222.8402l5.703125 0l0 3.3125l-2.109375 0l0 18.1875l2.109375 0l0 3.3125l-5.703125 0l0 -24.8125z" fill-rule="nonzero"/><path fill="#000000" d="m74.49693 228.30894l3.46875 0l-1.84375 14.15625l-3.4375 0l0.1875 -1.515625q-1.125 1.046875 -2.109375 1.46875q-0.984375 0.40625 -2.203125 0.40625q-2.8125 0 -4.484375 -2.0625q-1.65625 -2.078125 -1.65625 -4.8125q0 -2.09375 1.046875 -3.984375q1.0625 -1.90625 2.84375 -2.96875q1.78125 -1.0625 3.71875 -1.0625q1.296875 0 2.390625 0.609375q1.109375 0.59375 1.828125 1.734375l0.25 -1.96875zm-5.140625 11.421875q1.28125 0 2.234375 -0.5625q0.953125 -0.578125 1.59375 -1.796875q0.640625 -1.234375 0.640625 -2.5q0 -1.6875 -0.96875 -2.703125q-0.96875 -1.03125 -2.5625 -1.03125q-1.84375 0 -3.140625 1.375q-1.28125 1.359375 -1.28125 3.515625q0 1.671875 0.96875 2.6875q0.984375 1.015625 2.515625 1.015625z" fill-rule="nonzero"/><path fill="#000000" d="m90.239746 238.85582l2.546875 1.28125l-3.21875 5.484375l-1.78125 -0.84375l2.453125 -5.921875z" fill-rule="nonzero"/><path fill="#000000" d="m105.68704 242.4652l-3.46875 0l2.5625 -19.625l3.4375 0l-0.90625 6.984375q1.125 -1.0625 2.109375 -1.46875q0.984375 -0.421875 2.203125 -0.421875q2.8125 0 4.46875 2.078125q1.65625 2.0625 1.65625 4.796875q0 2.09375 -1.0625 4.0q-1.046875 1.90625 -2.828125 2.96875q-1.765625 1.046875 -3.6875 1.046875q-1.3125 0 -2.421875 -0.59375q-1.09375 -0.59375 -1.796875 -1.75l-0.265625 1.984375zm5.125 -11.4375q-1.265625 0 -2.21875 0.578125q-0.953125 0.578125 -1.59375 1.8125q-0.640625 1.21875 -0.640625 2.484375q0 1.6875 0.96875 2.703125q0.96875 1.015625 2.546875 1.015625q1.859375 0 3.140625 -1.359375q1.296875 -1.375 1.296875 -3.53125q0 -1.65625 -0.984375 -2.671875q-0.96875 -1.03125 -2.515625 -1.03125z" fill-rule="nonzero"/><path fill="#000000" d="m133.03923 247.6527l-5.703125 0l0 -3.328125l2.109375 0l0 -18.1875l-2.109375 0l0 -3.296875l5.703125 0l0 24.8125z" fill-rule="nonzero"/><path fill="#000000" d="m148.6632 248.8402l-5.171875 0q2.65625 -3.0 3.96875 -6.515625q1.3125 -3.515625 1.3125 -8.046875q0 -4.890625 -1.453125 -8.59375q-1.140625 -2.859375 -3.828125 -6.21875l5.171875 0q2.40625 3.8125 3.34375 7.125q0.953125 3.3125 0.953125 7.8125q0 4.390625 -1.0 7.703125q-1.0 3.3125 -3.296875 6.734375z" fill-rule="nonzero"/></g></svg>